<svg version="1.1" xmlns="http://www.w3.org/2000/svg"  viewBox="0 0 555 449" width="555" height="449"><path d="M0 0 C183.15 0 366.3 0 555 0 C555 148.17 555 296.34 555 449 C371.85 449 188.7 449 0 449 C0 300.83 0 152.66 0 0 Z " transform="translate(0,0)" style="fill: #010101;"></path><path d="M0 0 C4.76865828 1.68305586 7.08340072 3.68301398 9.30859375 8.10546875 C10.97554378 12.67310019 10.40237642 16.07788738 8.5 20.4375 C8.005 21.283125 7.51 22.12875 7 23 C6.505 22.01 6.505 22.01 6 21 C5.01 21.66 4.02 22.32 3 23 C3 23.99 3 24.98 3 26 C2.360625 26.268125 1.72125 26.53625 1.0625 26.8125 C-1.33131686 27.88667752 -1.33131686 27.88667752 -2 31 C-2.66 31 -3.32 31 -4 31 C-4.33 32.32 -4.66 33.64 -5 35 C-5.99 35 -6.98 35 -8 35 C-8.24105469 35.64324219 -8.48210937 36.28648437 -8.73046875 36.94921875 C-10 39 -10 39 -11.92578125 39.64453125 C-19.02711921 40.14429808 -25.92225014 39.72108737 -33 39 C-32.34 37.68 -31.68 36.36 -31 35 C-31.99 35 -32.98 35 -34 35 C-34 34.01 -34 33.02 -34 32 C-31.69 32.33 -29.38 32.66 -27 33 C-28.25178596 30.49642808 -29.99981158 28.93566621 -32 27 C-30 25 -30 25 -27.5 24.8125 C-25 25 -25 25 -23 26 C-23 25.34 -23 24.68 -23 24 C-23.99 24 -24.98 24 -26 24 C-25.67 22.68 -25.34 21.36 -25 20 C-21.9168649 21.19899698 -18.93720508 22.47700477 -16 24 C-16 22.68 -16 21.36 -16 20 C-16.66 20 -17.32 20 -18 20 C-19.16899982 14.0487282 -19.45282513 9.2431789 -16 4 C-13.73848862 2.18765716 -11.67891269 1.21768758 -9 0 C-5.84651502 -1.57674249 -3.39455853 -0.67891171 0 0 Z " transform="translate(202,188)" style="fill: #0A0A0A;"></path><path d="M0 0 C4.22448003 3.62098288 6.04057177 7.14124685 6.5 12.5625 C6.25694571 15.13887552 5.97319155 17.41971389 5.1875 19.875 C6.8375 19.215 8.4875 18.555 10.1875 17.875 C9.58426766 21.25310112 8.28557945 23.19755812 6.1875 25.875 C7.91676874 25.56306536 9.64591044 25.25042638 11.375 24.9375 C12.33792969 24.76347656 13.30085938 24.58945313 14.29296875 24.41015625 C16.92989972 23.9226265 19.5594905 23.40828895 22.1875 22.875 C21.82430051 25.5081963 21.33244976 26.71931322 19.5 28.6875 C16.39511963 30.28189803 14.50133374 29.70345843 11.1875 28.875 C10.8575 29.865 10.5275 30.855 10.1875 31.875 C7.7125 32.37 7.7125 32.37 5.1875 32.875 C12.1175 33.37 12.1175 33.37 19.1875 33.875 C18.1975 34.37 18.1975 34.37 17.1875 34.875 C16.95179774 37.11070226 16.95179774 37.11070226 19.1875 38.875 C15.89590684 38.93290353 12.60444397 38.96856261 9.3125 39 C8.37535156 39.01675781 7.43820312 39.03351563 6.47265625 39.05078125 C5.57675781 39.05722656 4.68085938 39.06367188 3.7578125 39.0703125 C2.93039551 39.08078613 2.10297852 39.09125977 1.25048828 39.10205078 C-0.8125 38.875 -0.8125 38.875 -2.8125 36.875 C-2.8125 35.885 -2.8125 34.895 -2.8125 33.875 C-1.8225 33.38 -1.8225 33.38 -0.8125 32.875 C-2.17408007 30.28796511 -2.17408007 30.28796511 -4.8125 27.875 C-7.12800905 27.22161959 -7.12800905 27.22161959 -9.6875 26.875 C-15.59340756 25.95165752 -18.53639068 23.87532593 -22.1875 19.0625 C-23.59736893 14.12795873 -23.54168436 9.69853316 -21.25 5.125 C-15.97202201 -2.92114826 -8.45110005 -3.38044002 0 0 Z " transform="translate(377.8125,189.125)" style="fill: #0E0E0E;"></path><path d="M0 0 C-2.6739124 0.89130413 -5.23723823 1.47731534 -8 2 C-7.01 3.32 -6.02 4.64 -5 6 C-5.82242188 6.04898438 -6.64484375 6.09796875 -7.4921875 6.1484375 C-22.05151793 6.85043807 -22.05151793 6.85043807 -34.40625 13.7578125 C-36 15 -36 15 -38 15 C-38.495 16.485 -38.495 16.485 -39 18 C-40.63264644 19.45961383 -42.32912023 20.84906752 -44.0625 22.1875 C-44.98160156 22.90292969 -45.90070313 23.61835937 -46.84765625 24.35546875 C-47.55792969 24.89816406 -48.26820313 25.44085938 -49 26 C-49.66 25.01 -50.32 24.02 -51 23 C-49.37660195 21.29115995 -47.70680947 19.62553283 -46 18 C-45.34 18 -44.68 18 -44 18 C-44 17.01 -44 16.02 -44 15 C-44.41362793 15.39380859 -44.82725586 15.78761719 -45.25341797 16.19335938 C-47.12245887 17.96739988 -48.99859299 19.73375387 -50.875 21.5 C-51.85146484 22.43005859 -51.85146484 22.43005859 -52.84765625 23.37890625 C-53.47285156 23.96542969 -54.09804688 24.55195312 -54.7421875 25.15625 C-55.3182373 25.70087891 -55.89428711 26.24550781 -56.48779297 26.80664062 C-58 28 -58 28 -60 28 C-60 28.66 -60 29.32 -60 30 C-61.64488294 31.68816933 -63.31337542 33.35353315 -65 35 C-65.66 35.99 -66.32 36.98 -67 38 C-68.65 37.67 -70.3 37.34 -72 37 C-70.92105469 35.92492187 -70.92105469 35.92492187 -69.8203125 34.828125 C-68.03367889 33.03654227 -66.25639456 31.23554581 -64.4921875 29.421875 C-59.08113194 23.89775261 -53.55257524 18.81274368 -47.48828125 13.9921875 C-45.40358784 12.3231237 -43.41724977 10.6021567 -41.4375 8.8125 C-30.31981585 -0.69047288 -14.20219209 -6.31208537 0 0 Z " transform="translate(415,81)" style="fill: #2F2F2F;"></path><path d="M0 0 C3.0831351 1.19899698 6.06279492 2.47700477 9 4 C9 4.66 9 5.32 9 6 C9.99 5.67 10.98 5.34 12 5 C13.5 6.375 13.5 6.375 15 8 C15 8.66 15 9.32 15 10 C18.465 9.505 18.465 9.505 22 9 C22.33 9.66 22.66 10.32 23 11 C22.34 11 21.68 11 21 11 C20.67 12.32 20.34 13.64 20 15 C19.01 15 18.02 15 17 15 C16.75894531 15.64324219 16.51789063 16.28648437 16.26953125 16.94921875 C15 19 15 19 13.07421875 19.64453125 C5.97288079 20.14429808 -0.92225014 19.72108737 -8 19 C-7.34 17.68 -6.68 16.36 -6 15 C-6.99 15 -7.98 15 -9 15 C-9 14.01 -9 13.02 -9 12 C-6.69 12.33 -4.38 12.66 -2 13 C-3.25178596 10.49642808 -4.99981158 8.93566621 -7 7 C-5 5 -5 5 -2.5 4.8125 C0 5 0 5 2 6 C2 5.34 2 4.68 2 4 C1.01 4 0.02 4 -1 4 C-0.67 2.68 -0.34 1.36 0 0 Z " transform="translate(177,208)" style="fill: #575A5A;"></path><path d="M0 0 C1.79111206 -0.01933594 1.79111206 -0.01933594 3.6184082 -0.0390625 C4.74851318 -0.04035156 5.87861816 -0.04164063 7.04296875 -0.04296875 C8.05770264 -0.04707764 9.07243652 -0.05118652 10.11791992 -0.05541992 C12.84678072 0.19059045 14.48410155 0.78768696 16.8125 2.1875 C16.1525 3.5075 15.4925 4.8275 14.8125 6.1875 C12.14583333 6.1875 9.47916667 6.1875 6.8125 6.1875 C7.1425 4.8675 7.4725 3.5475 7.8125 2.1875 C-0.1075 2.1875 -8.0275 2.1875 -16.1875 2.1875 C-16.1875 2.8475 -16.1875 3.5075 -16.1875 4.1875 C-16.8475 4.5175 -17.5075 4.8475 -18.1875 5.1875 C-15.2175 5.5175 -12.2475 5.8475 -9.1875 6.1875 C-9.1875 6.5175 -9.1875 6.8475 -9.1875 7.1875 C-26.20878814 8.47847415 -43.10474357 9.52689251 -60.1875 9.1875 C-60.1875 6.1875 -60.1875 6.1875 -58.56738281 4.03808594 C-55.57130626 1.70835058 -53.87540295 1.65196869 -50.109375 1.578125 C-48.94921875 1.54589844 -47.7890625 1.51367188 -46.59375 1.48046875 C-45.3871875 1.46628906 -44.180625 1.45210938 -42.9375 1.4375 C-41.71546875 1.40785156 -40.4934375 1.37820313 -39.234375 1.34765625 C-36.21868356 1.27697598 -33.2037645 1.22426825 -30.1875 1.1875 C-30.1875 1.5175 -30.1875 1.8475 -30.1875 2.1875 C-33.1575 2.8475 -36.1275 3.5075 -39.1875 4.1875 C-34.5675 4.1875 -29.9475 4.1875 -25.1875 4.1875 C-26.5075 3.1975 -27.8275 2.2075 -29.1875 1.1875 C-19.46372183 0.27538681 -9.76356736 0.05194423 0 0 Z " transform="translate(299.1875,325.8125)" style="fill: #252525;"></path><path d="M0 0 C3.0831351 1.19899698 6.06279492 2.47700477 9 4 C9 4.66 9 5.32 9 6 C9.59143799 6.2671582 10.18287598 6.53431641 10.79223633 6.80957031 C17.75572753 10.56429585 22.37372485 17.93109022 26.8125 24.25 C27.38419922 25.05179688 27.95589844 25.85359375 28.54492188 26.6796875 C30.73789726 29.76170695 32.90167022 32.85250533 35 36 C34.01 36 33.02 36 32 36 C32 36.66 32 37.32 32 38 C31.34 38 30.68 38 30 38 C30 39.65 30 41.3 30 43 C22 33.28571429 22 33.28571429 22 30 C21.01 29.67 20.02 29.34 19 29 C17.63507179 27.0214276 16.30680217 25.01743547 15 23 C13.28568391 21.01035436 11.53528118 19.05122443 9.75 17.125 C8.85796875 16.15820312 7.9659375 15.19140625 7.046875 14.1953125 C6.37140625 13.47085938 5.6959375 12.74640625 5 12 C5.495 11.54625 5.99 11.0925 6.5 10.625 C8.22609337 9.12364481 8.22609337 9.12364481 8 7 C7.01 6.67 6.02 6.34 5 6 C4.67 5.34 4.34 4.68 4 4 C3.01 4 2.02 4 1 4 C0.67 2.68 0.34 1.36 0 0 Z " transform="translate(185,84)" style="fill: #1E1E1E;"></path><path d="M0 0 C0.33 0.99 0.66 1.98 1 3 C-0.9375 5.6875 -0.9375 5.6875 -3 8 C-1.27073126 7.68806536 0.45841044 7.37542638 2.1875 7.0625 C3.63189453 6.80146484 3.63189453 6.80146484 5.10546875 6.53515625 C7.74239972 6.0476265 10.3719905 5.53328895 13 5 C12.63680051 7.6331963 12.14494976 8.84431322 10.3125 10.8125 C7.20761963 12.40689803 5.31383374 11.82845843 2 11 C1.67 11.99 1.34 12.98 1 14 C-0.65 14.33 -2.3 14.66 -4 15 C2.93 15.495 2.93 15.495 10 16 C9.34 16.33 8.68 16.66 8 17 C7.76429774 19.23570226 7.76429774 19.23570226 10 21 C6.70840684 21.05790353 3.41694397 21.09356261 0.125 21.125 C-1.28072266 21.15013672 -1.28072266 21.15013672 -2.71484375 21.17578125 C-3.61074219 21.18222656 -4.50664062 21.18867188 -5.4296875 21.1953125 C-6.25710449 21.20578613 -7.08452148 21.21625977 -7.93701172 21.22705078 C-10 21 -10 21 -12 19 C-12 18.01 -12 17.02 -12 16 C-11.34 15.67 -10.68 15.34 -10 15 C-11.32 13.02 -12.64 11.04 -14 9 C-12.35 8.67 -10.7 8.34 -9 8 C-8.34 6.02 -7.68 4.04 -7 2 C-6.01 2 -5.02 2 -4 2 C-1.84971696 1.05021103 -1.84971696 1.05021103 0 0 Z " transform="translate(387,207)" style="fill: #333635;"></path><path d="M0 0 C0.66 0.33 1.32 0.66 2 1 C2.625 3.5625 2.625 3.5625 3 6 C5.23570226 6.23570226 5.23570226 6.23570226 7 4 C6.85831863 5.43791516 6.71148957 6.8753237 6.5625 8.3125 C6.48128906 9.11300781 6.40007812 9.91351563 6.31640625 10.73828125 C6 13 6 13 5 16 C5.79277344 15.82855469 6.58554688 15.65710938 7.40234375 15.48046875 C11.86251242 14.88481104 16.08155106 15.05951526 20.5625 15.3125 C21.39974609 15.34794922 22.23699219 15.38339844 23.09960938 15.41992188 C27.48788174 15.65271225 30.96888369 16.10436949 35 18 C35.66 18 36.32 18 37 18 C36.505 19.485 36.505 19.485 36 21 C34.67162109 20.80083984 34.67162109 20.80083984 33.31640625 20.59765625 C23.55200264 19.2056445 13.85003856 18.45814133 4 18 C4 15.69 4 13.38 4 11 C3.67 11.66 3.34 12.32 3 13 C2.01 13 1.02 13 0 13 C-0.144375 13.804375 -0.28875 14.60875 -0.4375 15.4375 C-1 18 -1 18 -2 19 C-4.40043189 19.21310863 -6.78218467 19.37688433 -9.1875 19.5 C-12.99292025 19.70913006 -16.62109092 19.92606652 -20.36328125 20.65625 C-21.66845703 20.82640625 -21.66845703 20.82640625 -23 21 C-23.66 20.34 -24.32 19.68 -25 19 C-22.64741656 18.49133331 -20.29338596 17.9929375 -17.9375 17.5 C-17.28072266 17.35691406 -16.62394531 17.21382812 -15.94726562 17.06640625 C-11.56860012 16.16047545 -7.49581296 15.85968854 -3 16 C-2.44751042 12.21150002 -1.93259572 8.42909567 -1.5 4.625 C-1 1 -1 1 0 0 Z " transform="translate(62,223)" style="fill: #282828;"></path><path d="M0 0 C1.71484375 1.51171875 1.71484375 1.51171875 3 3 C5.62570704 3.25069913 5.62570704 3.25069913 8 3 C8 3.66 8 4.32 8 5 C10.475 5.495 10.475 5.495 13 6 C11 8 11 8 8.38623047 8.22705078 C7.30744629 8.21657715 6.22866211 8.20610352 5.1171875 8.1953125 C3.95058594 8.18886719 2.78398437 8.18242187 1.58203125 8.17578125 C0.35871094 8.15902344 -0.86460937 8.14226562 -2.125 8.125 C-3.35605469 8.11597656 -4.58710938 8.10695313 -5.85546875 8.09765625 C-8.90383815 8.07402548 -11.95182382 8.04108054 -15 8 C-13.68 7.67 -12.36 7.34 -11 7 C-11 6.34 -11 5.68 -11 5 C-9.35 4.34 -7.7 3.68 -6 3 C-12.60718405 3.43546857 -12.60718405 3.43546857 -18 7 C-18.66 6.34 -19.32 5.68 -20 5 C-22.10242913 4.79405418 -22.10242913 4.79405418 -24.5 4.9375 C-29.73563765 5.05198187 -34.8052836 4.61894493 -40 4 C-40 3.67 -40 3.34 -40 3 C-8.3612999 -1.23601825 -8.3612999 -1.23601825 0 0 Z " transform="translate(257,343)" style="fill: #292929;"></path><path d="M0 0 C1.05638672 0.00902344 2.11277344 0.01804688 3.20117188 0.02734375 C5.78019253 0.0506833 8.3587199 0.08342225 10.9375 0.125 C12.04150391 3.84570312 12.04150391 3.84570312 11.10546875 6.359375 C7.5512072 9.25401684 3.67516732 8.54333116 -0.75 8.375 C-1.64267578 8.35695312 -2.53535156 8.33890625 -3.45507812 8.3203125 C-5.65863504 8.27317759 -7.86002601 8.20740657 -10.0625 8.125 C-9.7325 6.805 -9.4025 5.485 -9.0625 4.125 C-9.76117187 4.14820313 -10.45984375 4.17140625 -11.1796875 4.1953125 C-12.08976562 4.21335938 -12.99984375 4.23140625 -13.9375 4.25 C-14.84242188 4.27320313 -15.74734375 4.29640625 -16.6796875 4.3203125 C-19.0625 4.125 -19.0625 4.125 -21.0625 2.125 C-13.91057616 0.23074697 -7.37761339 -0.12102079 0 0 Z " transform="translate(524.0625,181.875)" style="fill: #272727;"></path><path d="M0 0 C0.99 0 1.98 0 3 0 C3.08040527 0.55985596 3.16081055 1.11971191 3.24365234 1.6965332 C3.61292486 4.23640115 3.99382568 6.77439215 4.375 9.3125 C4.50132812 10.19357422 4.62765625 11.07464844 4.7578125 11.98242188 C4.88671875 12.82998047 5.015625 13.67753906 5.1484375 14.55078125 C5.26364746 15.33106689 5.37885742 16.11135254 5.49755859 16.9152832 C5.94254783 19.28682157 5.94254783 19.28682157 8 22 C9.44203283 28.58706353 10.31359388 35.25773155 10 42 C9.17242187 41.85691406 8.34484375 41.71382812 7.4921875 41.56640625 C3.71144412 40.95319843 -0.0776737 40.43424327 -3.875 39.9375 C-4.56335938 39.84662109 -5.25171875 39.75574219 -5.9609375 39.66210938 C-7.64050563 39.44049969 -9.32023621 39.22012172 -11 39 C-11 37.02 -11 35.04 -11 33 C-10.67 33.99 -10.34 34.98 -10 36 C-9.02417969 36.13277344 -8.04835938 36.26554687 -7.04296875 36.40234375 C-5.77066406 36.57894531 -4.49835938 36.75554687 -3.1875 36.9375 C-1.92292969 37.11152344 -0.65835937 37.28554687 0.64453125 37.46484375 C4 38 4 38 7 39 C6.74605469 37.87464844 6.49210937 36.74929687 6.23046875 35.58984375 C4.52212942 27.98723421 2.82912137 20.38063399 1.25 12.75 C1.00765625 11.58984375 0.7653125 10.4296875 0.515625 9.234375 C0.01488898 6.0933945 -0.09618545 3.17411984 0 0 Z " transform="translate(314,95)" style="fill: #232323;"></path><path d="M0 0 C0.66 0.33 1.32 0.66 2 1 C0.67993255 9.12883642 0.67993255 9.12883642 -2 12.5625 C-4 14 -4 14 -6 14 C-6.66 15.32 -7.32 16.64 -8 18 C-8.66 18 -9.32 18 -10 18 C-10.33 18.66 -10.66 19.32 -11 20 C-11 19.01 -11 18.02 -11 17 C-12.32 17.33 -13.64 17.66 -15 18 C-15 18.66 -15 19.32 -15 20 C-16.96466413 21.06775224 -18.96855359 22.06553465 -21 23 C-21.66 22.67 -22.32 22.34 -23 22 C-17.30505476 13.69487152 -10.38170947 7.53192825 -2 2 C-1.34 2 -0.68 2 0 2 C0 1.34 0 0.68 0 0 Z " transform="translate(127,99)" style="fill: #252525;"></path><path d="M0 0 C1.98 0 3.96 0 6 0 C6.33 2.31 6.66 4.62 7 7 C-9.48421053 12.72368421 -9.48421053 12.72368421 -15 11 C-15 8.69 -15 6.38 -15 4 C-8.07 2.515 -8.07 2.515 -1 1 C-0.67 1.66 -0.34 2.32 0 3 C0.66 3 1.32 3 2 3 C2 2.34 2 1.68 2 1 C1.34 0.67 0.68 0.34 0 0 Z " transform="translate(77,267)" style="fill: #252525;"></path><path d="M0 0 C1.32 0 2.64 0 4 0 C3.49396008 2.16874252 3.00016187 3.99967627 2 6 C2.66 6.33 3.32 6.66 4 7 C2.55463213 10.5667949 0.80259054 12.18530899 -2.375 14.3125 C-3.53128906 15.11107422 -3.53128906 15.11107422 -4.7109375 15.92578125 C-7 17 -7 17 -9.2890625 16.66796875 C-9.85367187 16.44753906 -10.41828125 16.22710937 -11 16 C-10.01 16 -9.02 16 -8 16 C-8 15.01 -8 14.02 -8 13 C-8.99 13.495 -8.99 13.495 -10 14 C-12.88370333 14.07194869 -15.74239664 14.09291708 -18.625 14.0625 C-19.82769531 14.05573242 -19.82769531 14.05573242 -21.0546875 14.04882812 C-23.03649006 14.03703168 -25.01825433 14.01909605 -27 14 C-27 13.34 -27 12.68 -27 12 C-27.66 11.67 -28.32 11.34 -29 11 C-27.83984375 11.01740234 -27.83984375 11.01740234 -26.65625 11.03515625 C-15.40236248 11.52550992 -15.40236248 11.52550992 -5 8 C-3.59424374 5.96492263 -2.49555893 3.86656797 -1.34375 1.6796875 C-0.9003125 1.12539062 -0.456875 0.57109375 0 0 Z " transform="translate(330,224)" style="fill: #525252;"></path><path d="M0 0 C-0.66 0 -1.32 0 -2 0 C-2 0.66 -2 1.32 -2 2 C-9.42857143 5.28571429 -9.42857143 5.28571429 -13 6 C-13 6.66 -13 7.32 -13 8 C-14.4609375 9.2890625 -14.4609375 9.2890625 -16.375 10.625 C-17.00148438 11.07101563 -17.62796875 11.51703125 -18.2734375 11.9765625 C-20 13 -20 13 -22 13 C-22.309375 13.81210938 -22.309375 13.81210938 -22.625 14.640625 C-24.53684669 17.92118012 -27.20498504 20.23844174 -30 22.75 C-30.5465625 23.25660156 -31.093125 23.76320313 -31.65625 24.28515625 C-35.74157682 28 -35.74157682 28 -38 28 C-38 28.66 -38 29.32 -38 30 C-39.64488294 31.68816933 -41.31337542 33.35353315 -43 35 C-43.66 35.99 -44.32 36.98 -45 38 C-46.65 37.67 -48.3 37.34 -50 37 C-48.92105469 35.92492187 -48.92105469 35.92492187 -47.8203125 34.828125 C-46.03367889 33.03654227 -44.25639456 31.23554581 -42.4921875 29.421875 C-37.08113194 23.89775261 -31.55257524 18.81274368 -25.48828125 13.9921875 C-23.40358784 12.3231237 -21.41724977 10.6021567 -19.4375 8.8125 C-14.54262855 4.56948795 -6.59495496 -2.19831832 0 0 Z " transform="translate(393,81)" style="fill: #747474;"></path><path d="M0 0 C0.33 0 0.66 0 1 0 C1.02725341 1.7290774 1.04650987 3.45828176 1.0625 5.1875 C1.07410156 6.15042969 1.08570313 7.11335938 1.09765625 8.10546875 C1 11 1 11 0.51147461 13.29711914 C-0.05266482 16.27830654 -0.19431895 19.10821117 -0.28125 22.140625 C-0.31863281 23.29304688 -0.35601562 24.44546875 -0.39453125 25.6328125 C-0.46529895 28.0598826 -0.53560564 30.48696619 -0.60546875 32.9140625 C-0.64285156 34.06132813 -0.68023437 35.20859375 -0.71875 36.390625 C-0.74904297 37.44282227 -0.77933594 38.49501953 -0.81054688 39.57910156 C-1 42 -1 42 -2 43 C-3.68608966 43.07205511 -5.37500659 43.08386068 -7.0625 43.0625 C-7.98160156 43.05347656 -8.90070313 43.04445312 -9.84765625 43.03515625 C-10.55792969 43.02355469 -11.26820313 43.01195312 -12 43 C-12.33 41.68 -12.66 40.36 -13 39 C-10.03 39 -7.06 39 -4 39 C-4.495 37.515 -4.495 37.515 -5 36 C-5.70127665 28.98723348 -4.70606107 22.10416593 -3.625 15.1875 C-3.49899414 14.37539062 -3.37298828 13.56328125 -3.24316406 12.7265625 C-2.51491911 8.31713918 -1.55872102 4.20854676 0 0 Z " transform="translate(268,92)" style="fill: #414141;"></path><path d="M0 0 C0.33 0.66 0.66 1.32 1 2 C-1.27446379 7.53247948 -4.75501481 11.1852154 -8.84375 15.4375 C-11.11759008 18.13974473 -12.54592489 20.79357796 -14 24 C-14.66 24 -15.32 24 -16 24 C-15.979375 25.299375 -15.95875 26.59875 -15.9375 27.9375 C-15.91600546 29.29165633 -15.92851801 30.64756083 -16 32 C-16.495 32.495 -16.495 32.495 -17 33 C-17.23427778 35.01594582 -17.41336124 37.038474 -17.5625 39.0625 C-17.68818359 40.71958984 -17.68818359 40.71958984 -17.81640625 42.41015625 C-17.87699219 43.26480469 -17.93757813 44.11945313 -18 45 C-18.99 45 -19.98 45 -21 45 C-21.2236337 43.58566794 -21.42826476 42.16832382 -21.625 40.75 C-21.74101562 39.96109375 -21.85703125 39.1721875 -21.9765625 38.359375 C-22.00368639 35.62890313 -21.44098867 34.2938187 -20 32 C-19.34 31.34 -18.68 30.68 -18 30 C-17.85931 27.19059665 -18.00528868 24.43838138 -18.125 21.62890625 C-18 19 -18 19 -16 16 C-15.67 16.66 -15.34 17.32 -15 18 C-13.86966702 16.75482035 -12.74594964 15.50363348 -11.625 14.25 C-10.99851562 13.55390625 -10.37203125 12.8578125 -9.7265625 12.140625 C-8.1183103 10.14668336 -7.08383199 8.30436351 -6 6 C-4.5 4.25 -4.5 4.25 -3 3 C-2.34 3 -1.68 3 -1 3 C-0.67 2.01 -0.34 1.02 0 0 Z " transform="translate(295,85)" style="fill: #313131;"></path><path d="M0 0 C1.125 1.75 1.125 1.75 2 4 C1.125 6.25 1.125 6.25 0 8 C-0.66 8 -1.32 8 -2 8 C-1.6596875 9.3303125 -1.6596875 9.3303125 -1.3125 10.6875 C-0.9407762 14.6277723 -1.87210544 15.78901257 -4 19 C-4.95777344 18.9278125 -5.91554687 18.855625 -6.90234375 18.78125 C-16.9507088 18.06660335 -26.92859353 17.88781849 -37 18 C-37 17.34 -37 16.68 -37 16 C-38.98 16.99 -38.98 16.99 -41 18 C-41.99 17.34 -42.98 16.68 -44 16 C-40.38508695 14.87247408 -36.99414068 14.87072051 -33.22265625 14.8671875 C-31.90458984 14.86589844 -30.58652344 14.86460937 -29.22851562 14.86328125 C-28.54442627 14.86537598 -27.86033691 14.8674707 -27.15551758 14.86962891 C-25.07300501 14.87497304 -22.99070895 14.86967761 -20.90820312 14.86328125 C-19.58884766 14.86457031 -18.26949219 14.86585938 -16.91015625 14.8671875 C-15.70496338 14.86831543 -14.49977051 14.86944336 -13.25805664 14.87060547 C-10.37570186 14.98507891 -7.79933838 15.33445077 -5 16 C-4.89042969 15.43152344 -4.78085938 14.86304688 -4.66796875 14.27734375 C-3.62061834 9.17683242 -2.20728247 4.715558 0 0 Z " transform="translate(72,182)" style="fill: #3B3B3B;"></path><path d="M0 0 C3.90411118 1.30137039 4.77520821 3.10357032 7.125 6.4375 C7.82882813 7.42621094 8.53265625 8.41492188 9.2578125 9.43359375 C11 12 11 12 12 14 C11.01 14 10.02 14 9 14 C9 14.66 9 15.32 9 16 C8.34 16 7.68 16 7 16 C7 17.65 7 19.3 7 21 C-1.72033898 10.41101695 -1.72033898 10.41101695 -2 3 C-1.34 2.01 -0.68 1.02 0 0 Z " transform="translate(208,106)" style="fill: #181818;"></path><path d="M0 0 C0 0.33 0 0.66 0 1 C-7.69519272 2.10855117 -15.36356229 2.34874915 -23.12695312 2.60546875 C-24.62452148 2.66154297 -24.62452148 2.66154297 -26.15234375 2.71875 C-27.5134729 2.76418945 -27.5134729 2.76418945 -28.90209961 2.81054688 C-30.98650097 2.77295305 -30.98650097 2.77295305 -32 4 C-33.55487643 4.3484563 -35.11949695 4.65390005 -36.6875 4.9375 C-40.58884404 5.68194585 -44.26419643 6.62365132 -48 8 C-48.33 7.01 -48.66 6.02 -49 5 C-35.98792334 -2.34014581 -14.41203021 -3.20267338 0 0 Z " transform="translate(412,282)" style="fill: #444444;"></path><path d="M0 0 C3.0831351 1.19899698 6.06279492 2.47700477 9 4 C9 4.66 9 5.32 9 6 C6.08235 7.9451 4.37462715 8.45276317 1 9 C0.67 9.99 0.34 10.98 0 12 C0.99 12.33 1.98 12.66 3 13 C2.67 13.66 2.34 14.32 2 15 C1.34 15 0.68 15 0 15 C0 16.32 0 17.64 0 19 C-2.64 19 -5.28 19 -8 19 C-7.34 17.68 -6.68 16.36 -6 15 C-6.99 15 -7.98 15 -9 15 C-9 14.01 -9 13.02 -9 12 C-6.69 12.33 -4.38 12.66 -2 13 C-3.25178596 10.49642808 -4.99981158 8.93566621 -7 7 C-5 5 -5 5 -2.5 4.8125 C0 5 0 5 2 6 C2 5.34 2 4.68 2 4 C1.01 4 0.02 4 -1 4 C-0.67 2.68 -0.34 1.36 0 0 Z " transform="translate(177,208)" style="fill: #757A7A;"></path><path d="M0 0 C0.40089844 0.38671875 0.80179687 0.7734375 1.21484375 1.171875 C5.75016436 5.32668119 10.27749121 7.79404423 16 10 C16 12.62113708 15.68707555 14.50935112 15 17 C13.39120578 16.60157441 11.78801827 16.18046843 10.1875 15.75 C8.84751953 15.40195313 8.84751953 15.40195313 7.48046875 15.046875 C4.62353901 13.84111568 3.61630966 12.59898297 2 10 C2.99 9.34 3.98 8.68 5 8 C4.34 7.67 3.68 7.34 3 7 C2.67 7.66 2.34 8.32 2 9 C1.67 9.33 1.34 9.66 1 10 C-0.32 8.68 -1.64 7.36 -3 6 C-2.34 6 -1.68 6 -1 6 C-1.0309375 4.7934375 -1.0309375 4.7934375 -1.0625 3.5625 C-1 1 -1 1 0 0 Z M11 11 C11.99 11.99 12.98 12.98 14 14 C13.67 13.01 13.34 12.02 13 11 C12.34 11 11.68 11 11 11 Z " transform="translate(284,224)" style="fill: #3C3C3C;"></path><path d="M0 0 C0 3.66666667 0 7.33333333 0 11 C1.32 10.67 2.64 10.34 4 10 C4.50615298 11.26839526 5.00469099 12.53983102 5.5 13.8125 C5.7784375 14.52019531 6.056875 15.22789062 6.34375 15.95703125 C7 18 7 18 7 21 C6.01 20.34 5.02 19.68 4 19 C3.34 19 2.68 19 2 19 C1.67 20.32 1.34 21.64 1 23 C0.34 23 -0.32 23 -1 23 C-1 21.02 -1 19.04 -1 17 C-1.66 17.66 -2.32 18.32 -3 19 C-3.92686058 12.77500395 -4.34078204 7.91355462 -2 2 C-1.34 1.34 -0.68 0.68 0 0 Z " transform="translate(156,291)" style="fill: #323232;"></path><path d="M0 0 C1.25683594 0.00322266 2.51367188 0.00644531 3.80859375 0.00976562 C5.12730469 0.01814453 6.44601562 0.02652344 7.8046875 0.03515625 C9.14452961 0.04017136 10.4843735 0.04473424 11.82421875 0.04882812 C15.10941956 0.06064539 18.39453147 0.07712008 21.6796875 0.09765625 C19.93565714 2.29109999 19.03129144 3.0356538 16.2277832 3.5300293 C15.27991943 3.55621338 14.33205566 3.58239746 13.35546875 3.609375 C12.32744141 3.64482422 11.29941406 3.68027344 10.24023438 3.71679688 C9.16837891 3.73935547 8.09652344 3.76191406 6.9921875 3.78515625 C5.90873047 3.81931641 4.82527344 3.85347656 3.70898438 3.88867188 C1.0326553 3.97120185 -1.64334409 4.04033562 -4.3203125 4.09765625 C-4.6503125 4.75765625 -4.9803125 5.41765625 -5.3203125 6.09765625 C-5.9803125 6.09765625 -6.6403125 6.09765625 -7.3203125 6.09765625 C-7.6503125 6.75765625 -7.9803125 7.41765625 -8.3203125 8.09765625 C-8.3203125 5.78765625 -8.3203125 3.47765625 -8.3203125 1.09765625 C-5.50207058 -0.31146471 -3.14779968 -0.01417928 0 0 Z " transform="translate(453.3203125,306.90234375)" style="fill: #4F4F4F;"></path><path d="M0 0 C-0.33 0.66 -0.66 1.32 -1 2 C-3.36328125 2.2734375 -3.36328125 2.2734375 -6.3125 2.375 C-10.86344292 2.65772424 -10.86344292 2.65772424 -14.6875 5.0625 C-15.3371875 6.0215625 -15.3371875 6.0215625 -16 7 C-16.66 6.34 -17.32 5.68 -18 5 C-20.10242913 4.79405418 -20.10242913 4.79405418 -22.5 4.9375 C-27.73563765 5.05198187 -32.8052836 4.61894493 -38 4 C-38 3.67 -38 3.34 -38 3 C-10.83596307 -0.58165209 -10.83596307 -0.58165209 0 0 Z " transform="translate(255,343)" style="fill: #4E4E4E;"></path><path d="M0 0 C0.33 0 0.66 0 1 0 C0.46148032 5.27749285 -0.77343836 9.25645564 -3 14 C-3.66 14 -4.32 14 -5 14 C-5.33 15.98 -5.66 17.96 -6 20 C-6.66 20 -7.32 20 -8 20 C-8.1546875 21.7634375 -8.1546875 21.7634375 -8.3125 23.5625 C-8.82914958 27.82485903 -10.1508361 31.14087534 -12 35 C-12.66 35 -13.32 35 -14 35 C-12.96251279 23.06889707 -6.35255422 12.4846371 -1 2 C-0.67 1.34 -0.34 0.68 0 0 Z " transform="translate(87,147)" style="fill: #545454;"></path><path d="M0 0 C0 0.33 0 0.66 0 1 C-1.953125 1.45572917 -3.90625 1.91145833 -5.859375 2.3671875 C-10.55979178 3.75672677 -14.67030988 6.52095652 -18.87890625 8.9765625 C-21 10 -21 10 -24 10 C-24.66 11.32 -25.32 12.64 -26 14 C-26.66 14 -27.32 14 -28 14 C-28.99 16.475 -28.99 16.475 -30 19 C-31.32 18.34 -32.64 17.68 -34 17 C-32.37660195 15.29115995 -30.70680947 13.62553283 -29 12 C-28.34 12 -27.68 12 -27 12 C-27 11.34 -27 10.68 -27 10 C-25.68 9.67 -24.36 9.34 -23 9 C-23 8.34 -23 7.68 -23 7 C-21.12762629 6.03654556 -19.2519701 5.07946898 -17.375 4.125 C-16.33085937 3.59132813 -15.28671875 3.05765625 -14.2109375 2.5078125 C-5.45427286 -1.6041979 -5.45427286 -1.6041979 0 0 Z " transform="translate(191,271)" style="fill: #434343;"></path><path d="M0 0 C3.4375 1.5625 3.4375 1.5625 6 3 C2.25 4.125 2.25 4.125 0 3 C-4.41353907 2.47106899 -7.95829942 2.50085181 -12 4.4375 C-15.19831143 8.53533652 -15 12.95502644 -15 18 C-15.66 18 -16.32 18 -17 18 C-17.33 18.66 -17.66 19.32 -18 20 C-19.16899982 14.0487282 -19.45282513 9.2431789 -16 4 C-13.73848862 2.18765716 -11.67891269 1.21768758 -9 0 C-5.84651502 -1.57674249 -3.39455853 -0.67891171 0 0 Z " transform="translate(202,188)" style="fill: #6E6E6E;"></path><path d="M0 0 C4.31392226 0.4793247 6.16569547 1.7457985 9 5 C9.33 3.35 9.66 1.7 10 0 C12.52588702 2.36292656 13.88820837 3.66462511 15 7 C14.67 7.639375 14.34 8.27875 14 8.9375 C12.77133649 10.96525921 12.77133649 10.96525921 13.375 13.25 C13.58125 13.8275 13.7875 14.405 14 15 C12.25 14.875 12.25 14.875 10 14 C9.00595784 12.64147572 8.02325241 11.27022696 7.1484375 9.83203125 C5.79316507 7.67004904 4.28943523 5.65951182 2.75 3.625 C1.96882812 2.59246094 1.96882812 2.59246094 1.171875 1.5390625 C0.78515625 1.03117187 0.3984375 0.52328125 0 0 Z " transform="translate(194,99)" style="fill: #222222;"></path><path d="M0 0 C0.99 0 1.98 0 3 0 C7.77553612 24.98265839 7.77553612 24.98265839 7 35 C6.67 35 6.34 35 6 35 C5.88930176 34.44127197 5.77860352 33.88254395 5.66455078 33.30688477 C5.15242617 30.72521184 4.63872077 28.14385577 4.125 25.5625 C3.95097656 24.68400391 3.77695312 23.80550781 3.59765625 22.90039062 C2.60032291 17.89525477 1.54805173 12.91245344 0.375 7.9453125 C-0.13898546 5.27901291 -0.13866897 2.70404495 0 0 Z " transform="translate(314,95)" style="fill: #6E6E6E;"></path><path d="M0 0 C0 0.66 0 1.32 0 2 C-0.969375 2.18433594 -1.93875 2.36867188 -2.9375 2.55859375 C-11.82674385 4.42524549 -19.07007276 7.22066013 -26.76953125 12.08959961 C-31.5815486 15.07426078 -31.5815486 15.07426078 -34.20800781 14.6081543 C-34.79936523 14.40746338 -35.39072266 14.20677246 -36 14 C-30.375 10 -30.375 10 -27 10 C-27 9.34 -27 8.68 -27 8 C-8.90582559 -0.70309149 -8.90582559 -0.70309149 0 0 Z " transform="translate(165,84)" style="fill: #7B7B7B;"></path><path d="M0 0 C-2 3 -2 3 -3.63574219 3.70874023 C-7.05641368 4.13014266 -10.40307278 3.89183076 -13.828125 3.66015625 C-14.95163361 3.59144569 -14.95163361 3.59144569 -16.09783936 3.52134705 C-18.48229614 3.3741885 -20.86610448 3.21846252 -23.25 3.0625 C-24.8697563 2.96102246 -26.48954777 2.86010456 -28.109375 2.75976562 C-32.07335348 2.51299458 -36.03677244 2.25854016 -40 2 C-40 1.67 -40 1.34 -40 1 C-26.65717153 -0.00295086 -13.37666 -0.11527017 0 0 Z " transform="translate(332,314)" style="fill: #5D5D5D;"></path><path d="M0 0 C3.63 0 7.26 0 11 0 C10.34 2.31 9.68 4.62 9 7 C4.71 7 0.42 7 -4 7 C-2.68 4.69 -1.36 2.38 0 0 Z " transform="translate(518,183)" style="fill: #242424;"></path><path d="M0 0 C0.78375 0.04125 1.5675 0.0825 2.375 0.125 C2.705 0.785 3.035 1.445 3.375 2.125 C2.385 2.62 2.385 2.62 1.375 3.125 C2.365 4.445 3.355 5.765 4.375 7.125 C-2.225 7.125 -8.825 7.125 -15.625 7.125 C-15.625 6.135 -15.625 5.145 -15.625 4.125 C-14.85414063 4.00382812 -14.08328125 3.88265625 -13.2890625 3.7578125 C-12.28617187 3.59023437 -11.28328125 3.42265625 -10.25 3.25 C-8.75339844 3.00636719 -8.75339844 3.00636719 -7.2265625 2.7578125 C-3.98288583 1.96881007 -3.36513593 0.16024457 0 0 Z " transform="translate(405.625,79.875)" style="fill: #1E1E1E;"></path><path d="M0 0 C2.98704569 0.49784095 4.39324263 1.26216175 7 3 C9.27912938 3.45394552 9.27912938 3.45394552 11.6875 3.625 C12.49574219 3.69976562 13.30398437 3.77453125 14.13671875 3.8515625 C14.75160156 3.90054688 15.36648437 3.94953125 16 4 C16 4.33 16 4.66 16 5 C12.92382812 5.29296875 12.92382812 5.29296875 9.84765625 5.5859375 C9.23792969 5.72257813 8.62820312 5.85921875 8 6 C7.67 6.66 7.34 7.32 7 8 C7.99 8.66 8.98 9.32 10 10 C5.75519536 10.33292585 3.64457375 10.43885872 0.0625 8 C-0.618125 7.34 -1.29875 6.68 -2 6 C-1.125 1.125 -1.125 1.125 0 0 Z " transform="translate(239,231)" style="fill: #303030;"></path><path d="M0 0 C0.33 0.99 0.66 1.98 1 3 C0.113125 3.144375 -0.77375 3.28875 -1.6875 3.4375 C-6.4569507 5.68724089 -7.97311929 9.26791993 -10 14 C-10.36830744 15.32409914 -10.71454573 16.65560246 -11 18 C-10.34 18.33 -9.68 18.66 -9 19 C-9.99 19.33 -10.98 19.66 -12 20 C-12 19.34 -12 18.68 -12 18 C-13.32 18 -14.64 18 -16 18 C-16 18.66 -16 19.32 -16 20 C-17.65 19.67 -19.3 19.34 -21 19 C-20.01 18.34 -19.02 17.68 -18 17 C-12.59135074 13.27404162 -10.2119214 9.18956239 -7.296875 3.328125 C-5.25016275 -0.34609338 -4.29506373 0 0 0 Z " transform="translate(281,215)" style="fill: #676767;"></path><path d="M0 0 C0.87591797 -0.01224609 1.75183594 -0.02449219 2.65429688 -0.03710938 C3.49154297 -0.03904297 4.32878906 -0.04097656 5.19140625 -0.04296875 C5.95783447 -0.04707764 6.7242627 -0.05118652 7.51391602 -0.05541992 C9.4375 0.1875 9.4375 0.1875 11.4375 2.1875 C7.41598841 3.22530944 3.73309992 3.20550693 -0.37890625 3.02734375 C-2.88355107 3.21104757 -4.34447022 4.05442365 -6.5625 5.1875 C-9.33290743 5.5429485 -11.74213465 5.36945905 -14.5625 5.1875 C-15.2225 4.5275 -15.8825 3.8675 -16.5625 3.1875 C-15.2425 3.1875 -13.9225 3.1875 -12.5625 3.1875 C-12.5625 2.5275 -12.5625 1.8675 -12.5625 1.1875 C-8.36706908 -0.21097697 -4.39368623 0.00324737 0 0 Z " transform="translate(295.5625,326.8125)" style="fill: #080808;"></path><path d="M0 0 C0.33 0.99 0.66 1.98 1 3 C-2.39162828 5.4589305 -5.32092287 7.19824241 -9.3125 8.5 C-10.529375 8.995 -11.74625 9.49 -13 10 C-13.72228752 11.95163825 -13.72228752 11.95163825 -14 14 C-14.33 14.66 -14.66 15.32 -15 16 C-14.01 16.66 -13.02 17.32 -12 18 C-13.65 18 -15.3 18 -17 18 C-17.66 16.35 -18.32 14.7 -19 13 C-15.19671867 8.84016104 -11.08802795 5.50143634 -6 3 C-5.01 3 -4.02 3 -3 3 C-3 2.34 -3 1.68 -3 1 C-2.01 0.67 -1.02 0.34 0 0 Z " transform="translate(452,205)" style="fill: #444444;"></path><path d="M0 0 C0.66 0.33 1.32 0.66 2 1 C-0.93803803 5.01531864 -3.76633606 7.63826348 -7.9375 10.375 C-12.21329806 13.22129648 -14.92146269 16.06539164 -17.6484375 20.3984375 C-19.30737238 22.36422738 -20.49939904 22.62757007 -23 23 C-17.35450103 14.0974824 -11.0149232 7.67115266 -2 2 C-1.34 2 -0.68 2 0 2 C0 1.34 0 0.68 0 0 Z " transform="translate(127,99)" style="fill: #777777;"></path><path d="M0 0 C2.95183101 2.95183101 3.08663988 5.95511947 4 10 C2.68 9.67 1.36 9.34 0 9 C-0.33 7.02 -0.66 5.04 -1 3 C-2.41791408 3.45445964 -3.83428046 3.91374944 -5.25 4.375 C-6.03890625 4.63023438 -6.8278125 4.88546875 -7.640625 5.1484375 C-9.86627958 5.95173667 -11.90931672 6.89711662 -14 8 C-13.875 6.25 -13.875 6.25 -13 4 C-5.28032684 -1.87366436 -5.28032684 -1.87366436 0 0 Z " transform="translate(320,65)" style="fill: #3B3B3B;"></path><path d="M0 0 C-0.99 0.66 -1.98 1.32 -3 2 C-3.99 1.67 -4.98 1.34 -6 1 C-6.66 4.63 -7.32 8.26 -8 12 C-8.66 12 -9.32 12 -10 12 C-10.144375 12.78375 -10.28875 13.5675 -10.4375 14.375 C-11 17 -11 17 -12 19 C-12.66 19 -13.32 19 -14 19 C-13.47459357 13.115448 -12.22574586 8.47162525 -10 3 C-9.67 2.01 -9.34 1.02 -9 0 C-5.93109813 -1.53445094 -3.29905734 -0.54984289 0 0 Z " transform="translate(346,62)" style="fill: #333333;"></path><path d="M0 0 C0 4 0 4 -1.875 6.0625 C-2.57625 6.701875 -3.2775 7.34125 -4 8 C-4.99 9.485 -4.99 9.485 -6 11 C-6.66 11 -7.32 11 -8 11 C-7.34 11.66 -6.68 12.32 -6 13 C-7.65 12.67 -9.3 12.34 -11 12 C-10.67 9.03 -10.34 6.06 -10 3 C-3.375 0 -3.375 0 0 0 Z " transform="translate(187,214)" style="fill: #333536;"></path><path d="M0 0 C0.99 0.33 1.98 0.66 3 1 C2.35903806 4.00759064 1.69110016 7.00380179 1 10 C0.78214844 10.98226562 0.56429687 11.96453125 0.33984375 12.9765625 C-0.01400391 14.44222656 -0.01400391 14.44222656 -0.375 15.9375 C-0.58898437 16.85402344 -0.80296875 17.77054688 -1.0234375 18.71484375 C-2 21 -2 21 -4.1015625 22.31640625 C-4.72804687 22.54199219 -5.35453125 22.76757812 -6 23 C-4.64741104 15.11583017 -2.45600648 7.60646666 0 0 Z " transform="translate(227,89)" style="fill: #505050;"></path><path d="M0 0 C0.33 0.66 0.66 1.32 1 2 C-0.84945637 6.50411824 -3.30552341 9.72508349 -6.625 13.25 C-9.66993007 16.37595367 -9.66993007 16.37595367 -12 20 C-14.0625 20.625 -14.0625 20.625 -16 21 C-14.72273952 16.65731438 -12.5791379 14.4286956 -9.38671875 11.4140625 C-7.77142168 9.7669145 -6.93863509 8.09387828 -6 6 C-4.5 4.25 -4.5 4.25 -3 3 C-2.34 3 -1.68 3 -1 3 C-0.67 2.01 -0.34 1.02 0 0 Z " transform="translate(295,85)" style="fill: #474747;"></path><path d="M0 0 C0.66 0.33 1.32 0.66 2 1 C0.44396229 4.81936528 -1.95604931 7.26044438 -5 10 C-5.66 10 -6.32 10 -7 10 C-7.66 12.31 -8.32 14.62 -9 17 C-9.66 17 -10.32 17 -11 17 C-11.33 17.66 -11.66 18.32 -12 19 C-13 16 -13 16 -12.22265625 13.95703125 C-11.83980469 13.24933594 -11.45695312 12.54164063 -11.0625 11.8125 C-10.68222656 11.09707031 -10.30195313 10.38164062 -9.91015625 9.64453125 C-9.45962891 8.83048828 -9.45962891 8.83048828 -9 8 C-8.34 8 -7.68 8 -7 8 C-6.34 6.68 -5.68 5.36 -5 4 C-4.34 4 -3.68 4 -3 4 C-3 3.34 -3 2.68 -3 2 C-2.01 1.34 -1.02 0.68 0 0 Z " transform="translate(361,288)" style="fill: #2F2F2F;"></path><path d="M0 0 C-0.66 0 -1.32 0 -2 0 C-2.23570226 2.23570226 -2.23570226 2.23570226 0 4 C-6.6 4 -13.2 4 -20 4 C-20.66 2.68 -21.32 1.36 -22 0 C-17.21521178 -0.09764874 -12.72314313 0.22887459 -8 1 C-8 0.67 -8 0.34 -8 0 C-4.71303767 -0.79953138 -3.28976808 -1.09658936 0 0 Z " transform="translate(397,224)" style="fill: #3A3C3C;"></path><path d="M0 0 C-0.36319949 2.6331963 -0.85505024 3.84431322 -2.6875 5.8125 C-5.79238037 7.40689803 -7.68616626 6.82845843 -11 6 C-11 6.66 -11 7.32 -11 8 C-13.31 8 -15.62 8 -18 8 C-13.91295262 3.14663124 -11.01078793 2.16337831 -5 1 C-2 0 -2 0 0 0 Z " transform="translate(400,212)" style="fill: #272928;"></path><path d="M0 0 C2.125 0.9375 2.125 0.9375 4 2 C3.67 2.99 3.34 3.98 3 5 C-5.415 5.495 -5.415 5.495 -14 6 C-14.66 4.68 -15.32 3.36 -16 2 C-15.01257813 1.93941406 -14.02515625 1.87882813 -13.0078125 1.81640625 C-11.72648437 1.73261719 -10.44515625 1.64882812 -9.125 1.5625 C-7.84882813 1.48128906 -6.57265625 1.40007812 -5.2578125 1.31640625 C-2.11699848 1.20793973 -2.11699848 1.20793973 0 0 Z " transform="translate(290,129)" style="fill: #2E2E2E;"></path><path d="M0 0 C4.41661151 -0.05804281 8.83312496 -0.09361104 13.25 -0.125 C14.50425781 -0.14175781 15.75851562 -0.15851563 17.05078125 -0.17578125 C18.25605469 -0.18222656 19.46132813 -0.18867188 20.703125 -0.1953125 C21.81333008 -0.20578613 22.92353516 -0.21625977 24.06738281 -0.22705078 C26.93950942 -0.00468334 28.57223735 0.50718425 31 2 C30.34 3.32 29.68 4.64 29 6 C26.33333333 6 23.66666667 6 21 6 C21.33 4.68 21.66 3.36 22 2 C14.74 1.67 7.48 1.34 0 1 C0 0.67 0 0.34 0 0 Z " transform="translate(285,326)" style="fill: #5A5A5A;"></path><path d="M0 0 C0.66 0 1.32 0 2 0 C2.309375 1.093125 2.61875 2.18625 2.9375 3.3125 C3.58337897 5.55407994 4.2623117 7.7869351 5 10 C3.85546875 11.7890625 3.85546875 11.7890625 2.1875 13.625 C1.64480469 14.23601562 1.10210937 14.84703125 0.54296875 15.4765625 C-1 17 -1 17 -3 18 C-4.13350534 20.01669827 -4.13350534 20.01669827 -5 22 C-5.25 15.375 -5.25 15.375 -3 12 C-2.01 11.67 -1.02 11.34 0 11 C0 7.37 0 3.74 0 0 Z " transform="translate(233,291)" style="fill: #444444;"></path><path d="M0 0 C1.73636719 -0.01836914 1.73636719 -0.01836914 3.5078125 -0.03710938 C5.16296875 -0.04000977 5.16296875 -0.04000977 6.8515625 -0.04296875 C7.86299316 -0.04707764 8.87442383 -0.05118652 9.91650391 -0.05541992 C12.375 0.1875 12.375 0.1875 14.375 2.1875 C13.375 3.1875 13.375 3.1875 11.15014648 3.30102539 C10.19180908 3.29578857 9.23347168 3.29055176 8.24609375 3.28515625 C6.69438477 3.28032227 6.69438477 3.28032227 5.11132812 3.27539062 C4.02271484 3.26701172 2.93410156 3.25863281 1.8125 3.25 C0.1737793 3.24323242 0.1737793 3.24323242 -1.49804688 3.23632812 C-4.20708495 3.22449826 -6.91601599 3.20801543 -9.625 3.1875 C-9.625 2.5275 -9.625 1.8675 -9.625 1.1875 C-11.605 2.1775 -11.605 2.1775 -13.625 3.1875 C-14.615 2.5275 -15.605 1.8675 -16.625 1.1875 C-11.21617249 -0.42869958 -5.59344356 0.00313534 0 0 Z " transform="translate(44.625,196.8125)" style="fill: #0F0F0F;"></path><path d="M0 0 C0 0.33 0 0.66 0 1 C-12.375 1.495 -12.375 1.495 -25 2 C-25.33 2.99 -25.66 3.98 -26 5 C-28.64 4.67 -31.28 4.34 -34 4 C-34 3.67 -34 3.34 -34 3 C-36.64 2.67 -39.28 2.34 -42 2 C-42 1.67 -42 1.34 -42 1 C-27.98675352 0.24426554 -14.03332368 -0.13698472 0 0 Z " transform="translate(290,316)" style="fill: #535353;"></path><path d="M0 0 C0.66 0.99 1.32 1.98 2 3 C0.96939453 3.03867188 0.96939453 3.03867188 -0.08203125 3.078125 C-0.98308594 3.13484375 -1.88414062 3.1915625 -2.8125 3.25 C-3.70582031 3.29640625 -4.59914062 3.3428125 -5.51953125 3.390625 C-8.16053515 3.79121416 -8.16053515 3.79121416 -9.82421875 6.046875 C-10.21222656 6.69140625 -10.60023438 7.3359375 -11 8 C-12.32 7.67 -13.64 7.34 -15 7 C-14.01 7 -13.02 7 -12 7 C-12 6.34 -12 5.68 -12 5 C-14.97 4.67 -17.94 4.34 -21 4 C-21 3.67 -21 3.34 -21 3 C-19.02 3 -17.04 3 -15 3 C-15 2.34 -15 1.68 -15 1 C-10.05 0.67 -5.1 0.34 0 0 Z " transform="translate(180,83)" style="fill: #2C2C2C;"></path><path d="M0 0 C2.475 0.495 2.475 0.495 5 1 C5.50367757 2.45706726 6.00282556 3.91570096 6.5 5.375 C6.91765625 6.59316406 6.91765625 6.59316406 7.34375 7.8359375 C8 10 8 10 8 12 C9.32 12.66 10.64 13.32 12 14 C11.67 14.99 11.34 15.98 11 17 C9.1875 16.8125 9.1875 16.8125 7 16 C4.18388588 12.31738922 3.20672559 8.42466049 2 4 C1.37530495 2.64649406 0.7283669 1.30065517 0 0 Z " transform="translate(215,128)" style="fill: #343434;"></path><path d="M0 0 C0.33 0 0.66 0 1 0 C1.125 2.375 1.125 2.375 1 5 C-1.48617847 7.48617847 -3.6807613 7.8935871 -7 9 C-7.845625 9.53625 -8.69125 10.0725 -9.5625 10.625 C-12.29984674 12.16914432 -13.90981733 12.2648728 -17 12 C-12.26671388 6.69871954 -7.11665265 3.69430758 0 3 C0 2.01 0 1.02 0 0 Z " transform="translate(277,64)" style="fill: #585858;"></path><path d="M0 0 C0.72380859 0.00773438 1.44761719 0.01546875 2.19335938 0.0234375 C2.90556641 0.01570312 3.61777344 0.00796875 4.3515625 0 C8.50028574 0.01535143 11.62908772 0.52584701 15.38085938 2.2734375 C16.04085937 2.2734375 16.70085937 2.2734375 17.38085938 2.2734375 C17.05085938 3.2634375 16.72085938 4.2534375 16.38085938 5.2734375 C4.50085938 3.7884375 4.50085938 3.7884375 -7.61914062 2.2734375 C-5.08657472 -0.25912841 -3.45871972 0.01286965 0 0 Z " transform="translate(81.619140625,238.7265625)" style="fill: #1F1F1F;"></path><path d="M0 0 C1.37478516 0.01740234 1.37478516 0.01740234 2.77734375 0.03515625 C3.69644531 0.04417969 4.61554688 0.05320312 5.5625 0.0625 C6.27277344 0.07410156 6.98304687 0.08570313 7.71484375 0.09765625 C7.71484375 0.42765625 7.71484375 0.75765625 7.71484375 1.09765625 C6.06484375 1.42765625 4.41484375 1.75765625 2.71484375 2.09765625 C4.36484375 3.08765625 6.01484375 4.07765625 7.71484375 5.09765625 C7.71484375 4.43765625 7.71484375 3.77765625 7.71484375 3.09765625 C8.37484375 3.09765625 9.03484375 3.09765625 9.71484375 3.09765625 C10.04484375 4.08765625 10.37484375 5.07765625 10.71484375 6.09765625 C6.08599354 7.00527394 2.86459184 7.58750511 -1.28515625 5.09765625 C-2.59765625 2.97265625 -2.59765625 2.97265625 -3.28515625 1.09765625 C-2.28515625 0.09765625 -2.28515625 0.09765625 0 0 Z " transform="translate(105.28515625,322.90234375)" style="fill: #232323;"></path><path d="M0 0 C0.66 0.33 1.32 0.66 2 1 C0.625 2.5 0.625 2.5 -1 4 C-1.66 4 -2.32 4 -3 4 C-3 4.66 -3 5.32 -3 6 C-4.64488294 7.68816933 -6.31337542 9.35353315 -8 11 C-8.99 12.485 -8.99 12.485 -10 14 C-11.65 13.67 -13.3 13.34 -15 13 C-13.33333333 11.33333333 -11.66666667 9.66666667 -10 8 C-9.175 7.13375 -8.35 6.2675 -7.5 5.375 C-5.1056153 3.10033453 -2.96642854 1.4431274 0 0 Z " transform="translate(358,105)" style="fill: #565656;"></path><path d="M0 0 C1.32 0.33 2.64 0.66 4 1 C3.67 1.99 3.34 2.98 3 4 C2.01 4 1.02 4 0 4 C-0.23460937 4.64453125 -0.46921875 5.2890625 -0.7109375 5.953125 C-2 8 -2 8 -4.1640625 8.609375 C-4.97617188 8.65578125 -5.78828125 8.7021875 -6.625 8.75 C-7.44226563 8.80671875 -8.25953125 8.8634375 -9.1015625 8.921875 C-9.72804687 8.94765625 -10.35453125 8.9734375 -11 9 C-9.68 8.34 -8.36 7.68 -7 7 C-7.33 6.34 -7.66 5.68 -8 5 C-4.77208445 2.8480563 -3.71599191 2.79913557 0 3 C0 2.01 0 1.02 0 0 Z " transform="translate(194,219)" style="fill: #686969;"></path><path d="M0 0 C0 0.33 0 0.66 0 1 C-9.46114865 4.15371622 -9.46114865 4.15371622 -13.5625 4.1875 C-14.74005859 4.20876953 -14.74005859 4.20876953 -15.94140625 4.23046875 C-18 4 -18 4 -20 2 C-13.1834265 0.2120463 -7.03482474 -0.23668569 0 0 Z " transform="translate(523,182)" style="fill: #333333;"></path><path d="M0 0 C0.77643769 2.27385323 1.13596514 3.57179809 0.3984375 5.89453125 C-2.08469035 10.54802657 -4.72087202 14.8579436 -8 19 C-8.66 19 -9.32 19 -10 19 C-7.60642612 12.25447361 -3.72673602 6.08046404 0 0 Z " transform="translate(98,128)" style="fill: #5C5C5C;"></path><path d="M0 0 C0.33 0 0.66 0 1 0 C1 1.65 1 3.3 1 5 C-0.98 5 -2.96 5 -5 5 C-5 5.66 -5 6.32 -5 7 C-5.58007812 7.06058594 -6.16015625 7.12117187 -6.7578125 7.18359375 C-7.53898437 7.26738281 -8.32015625 7.35117188 -9.125 7.4375 C-9.94355469 7.52515625 -10.76210938 7.6128125 -11.60546875 7.703125 C-13.56199673 7.94569617 -15.50427767 8.30085553 -17.4375 8.6875 C-18.283125 8.790625 -19.12875 8.89375 -20 9 C-20.66 8.34 -21.32 7.68 -22 7 C-19.64741656 6.49133331 -17.29338596 5.9929375 -14.9375 5.5 C-14.28072266 5.35691406 -13.62394531 5.21382812 -12.94726562 5.06640625 C-8.56860012 4.16047545 -4.49581296 3.85968854 0 4 C0 2.68 0 1.36 0 0 Z " transform="translate(59,235)" style="fill: #6F6F6F;"></path><path d="M0 0 C-0.375 2.4375 -0.375 2.4375 -1 5 C-1.99 5.495 -1.99 5.495 -3 6 C-3 5.34 -3 4.68 -3 4 C-3.99 4.33 -4.98 4.66 -6 5 C-5.67 5.66 -5.34 6.32 -5 7 C-6.98 7 -8.96 7 -11 7 C-10.67 5.68 -10.34 4.36 -10 3 C-10.66 2.67 -11.32 2.34 -12 2 C-10.7625 1.67 -9.525 1.34 -8.25 1 C-7.55390625 0.814375 -6.8578125 0.62875 -6.140625 0.4375 C-4 0 -4 0 0 0 Z " transform="translate(409,220)" style="fill: #414241;"></path><path d="M0 0 C0 0.66 0 1.32 0 2 C-2.24099569 3.22835325 -4.4901378 4.43229495 -6.75 5.625 C-7.70132812 6.1509375 -7.70132812 6.1509375 -8.671875 6.6875 C-10.546875 7.6640625 -10.546875 7.6640625 -14 9 C-16.453125 8.2109375 -16.453125 8.2109375 -18 7 C-15.75474054 5.82333996 -13.50455858 4.6585926 -11.25 3.5 C-10.29867188 2.99919922 -10.29867188 2.99919922 -9.328125 2.48828125 C-5.87989007 0.72824467 -3.95159931 0 0 0 Z " transform="translate(479,193)" style="fill: #464646;"></path><path d="M0 0 C0.33 0 0.66 0 1 0 C0.67 2.64 0.34 5.28 0 8 C0.81726563 7.82597656 1.63453125 7.65195313 2.4765625 7.47265625 C6.55472767 6.92558531 10.28981031 7.11615144 14.375 7.4375 C15.11105469 7.48970703 15.84710938 7.54191406 16.60546875 7.59570312 C18.40410629 7.72417723 20.20212909 7.86120949 22 8 C22 8.33 22 8.66 22 9 C21.08476563 8.98839844 20.16953125 8.97679687 19.2265625 8.96484375 C18.03804687 8.95582031 16.84953125 8.94679687 15.625 8.9375 C13.84996094 8.92009766 13.84996094 8.92009766 12.0390625 8.90234375 C9.08078479 8.78533407 9.08078479 8.78533407 7 10 C4.3276379 10.13415472 1.67749512 10.04318541 -1 10 C-0.67 6.7 -0.34 3.4 0 0 Z " transform="translate(67,231)" style="fill: #6A6A6A;"></path><path d="M0 0 C0.33 0 0.66 0 1 0 C1.33 1.65 1.66 3.3 2 5 C5.3 5.66 8.6 6.32 12 7 C12.33 6.34 12.66 5.68 13 5 C12.67 6.32 12.34 7.64 12 9 C7.74433453 10.16063604 4.3164922 9.76173392 0 9 C-1.15941038 5.52176885 -0.70820884 3.54104422 0 0 Z " transform="translate(230,131)" style="fill: #474747;"></path><path d="M0 0 C0.66 0.33 1.32 0.66 2 1 C2 1.99 2 2.98 2 4 C-3.17578125 7.22265625 -3.17578125 7.22265625 -5 8 C-5.99 7.67 -6.98 7.34 -8 7 C-7.39816251 4.97954558 -6.72693904 2.97888961 -6 1 C-4 0 -4 0 0 0 Z " transform="translate(147,92)" style="fill: #2C2C2C;"></path><path d="M0 0 C0.556875 0.2475 1.11375 0.495 1.6875 0.75 C0.6875 2.75 0.6875 2.75 -1.75 4.125 C-4.42772661 5.5020401 -4.42772661 5.5020401 -5.3125 7.875 C-5.6425 8.49375 -5.9725 9.1125 -6.3125 9.75 C-8.9375 10.5 -8.9375 10.5 -11.3125 10.75 C-5.4261811 -0.58661417 -5.4261811 -0.58661417 0 0 Z " transform="translate(251.3125,56.25)" style="fill: #444444;"></path><path d="M0 0 C0.33 0.99 0.66 1.98 1 3 C1.97582031 3.13277344 2.95164062 3.26554688 3.95703125 3.40234375 C5.22933594 3.57894531 6.50164062 3.75554687 7.8125 3.9375 C9.07707031 4.11152344 10.34164063 4.28554687 11.64453125 4.46484375 C15 5 15 5 18 6 C18.33 5.01 18.66 4.02 19 3 C19 4.32 19 5.64 19 7 C12.58311325 7.10349817 6.37305598 6.74507544 0 6 C0 4.02 0 2.04 0 0 Z " transform="translate(303,128)" style="fill: #7B7B7B;"></path><path d="M0 0 C-0.66 0 -1.32 0 -2 0 C-2 0.66 -2 1.32 -2 2 C-9.42857143 5.28571429 -9.42857143 5.28571429 -13 6 C-13 6.66 -13 7.32 -13 8 C-14.96466413 9.06775224 -16.96855359 10.06553465 -19 11 C-19.66 10.67 -20.32 10.34 -21 10 C-5.46971366 -1.82323789 -5.46971366 -1.82323789 0 0 Z " transform="translate(393,81)" style="fill: #989898;"></path><path d="M0 0 C1.74216797 0.02707031 1.74216797 0.02707031 3.51953125 0.0546875 C4.39996094 0.07789063 5.28039062 0.10109375 6.1875 0.125 C5.8575 0.785 5.5275 1.445 5.1875 2.125 C2.82421875 2.3984375 2.82421875 2.3984375 -0.125 2.5 C-4.67594292 2.78272424 -4.67594292 2.78272424 -8.5 5.1875 C-8.933125 5.826875 -9.36625 6.46625 -9.8125 7.125 C-10.4725 5.475 -11.1325 3.825 -11.8125 2.125 C-7.73526266 0.17468308 -4.49557578 -0.09081971 0 0 Z " transform="translate(248.8125,342.875)" style="fill: #444444;"></path><path d="M0 0 C0.33 0.66 0.66 1.32 1 2 C0.357359 3.6760772 -0.31379686 5.34128138 -1 7 C-1.42148875 8.92792077 -1.79676438 10.8665317 -2.125 12.8125 C-2.29257812 13.78832031 -2.46015625 14.76414063 -2.6328125 15.76953125 C-2.75398438 16.50558594 -2.87515625 17.24164063 -3 18 C-5 16 -5 16 -5.375 12.3125 C-5.27843584 7.50184893 -3.45456263 3.45456263 0 0 Z " transform="translate(360,190)" style="fill: #575757;"></path><path d="M0 0 C0 0.33 0 0.66 0 1 C-0.61488281 1.12117188 -1.22976563 1.24234375 -1.86328125 1.3671875 C-2.67152344 1.53476562 -3.47976563 1.70234375 -4.3125 1.875 C-5.51326172 2.11863281 -5.51326172 2.11863281 -6.73828125 2.3671875 C-9.25301118 2.94478999 -9.25301118 2.94478999 -12 5 C-14.6875 4.625 -14.6875 4.625 -17 4 C-17 3.67 -17 3.34 -17 3 C-19.97 2.67 -22.94 2.34 -26 2 C-26 1.67 -26 1.34 -26 1 C-22.7917943 0.83081552 -19.58341796 0.66510635 -16.375 0.5 C-15.47136719 0.45230469 -14.56773437 0.40460938 -13.63671875 0.35546875 C-9.08545547 0.12292245 -4.55915017 -0.06058671 0 0 Z " transform="translate(269,327)" style="fill: #585858;"></path><path d="M0 0 C0 0.33 0 0.66 0 1 C-6.69675136 2.03026944 -13.2314676 2.10152799 -20 2 C-20 1.34 -20 0.68 -20 0 C-14.58170067 -2.70914967 -5.73625864 -1.27472414 0 0 Z " transform="translate(412,282)" style="fill: #5F5F5F;"></path><path d="M0 0 C6.7281627 -0.22262303 12.53991163 0.04978464 19 2 C19 2.33 19 2.66 19 3 C13.39 3 7.78 3 2 3 C2 2.34 2 1.68 2 1 C1.34 0.67 0.68 0.34 0 0 Z " transform="translate(301,235)" style="fill: #292929;"></path><path d="M0 0 C6.27 0.33 12.54 0.66 19 1 C18.67 1.99 18.34 2.98 18 4 C15.03 4 12.06 4 9 4 C9 3.34 9 2.68 9 2 C7.02 2.33 5.04 2.66 3 3 C3 2.34 3 1.68 3 1 C2.01 0.67 1.02 0.34 0 0 Z " transform="translate(368,332)" style="fill: #535353;"></path><path d="M0 0 C0.66 0.33 1.32 0.66 2 1 C1.67 2.32 1.34 3.64 1 5 C1.66 5.33 2.32 5.66 3 6 C2.67 6.99 2.34 7.98 2 9 C2.33 9.99 2.66 10.98 3 12 C2.071875 12.12375 2.071875 12.12375 1.125 12.25 C-1.18437567 12.81258459 -1.18437567 12.81258459 -2.25 15.0625 C-2.4975 15.701875 -2.745 16.34125 -3 17 C-4.65 16.67 -6.3 16.34 -8 16 C-8 15.67 -8 15.34 -8 15 C-6.35 15 -4.7 15 -3 15 C-1.02306728 10.05766821 -0.91140772 6.22694429 -1 1 C-0.67 0.67 -0.34 0.34 0 0 Z " transform="translate(229,313)" style="fill: #3B3B3B;"></path><path d="M0 0 C0.33 0 0.66 0 1 0 C0.63223832 6.30267439 -0.16625922 11.33251843 -3 17 C-3.66 17 -4.32 17 -5 17 C-4.46246904 10.81839396 -2.45417612 5.673142 0 0 Z " transform="translate(78,165)" style="fill: #7A7A7A;"></path><path d="M0 0 C3.0831351 1.19899698 6.06279492 2.47700477 9 4 C9 4.66 9 5.32 9 6 C7.02 6.99 7.02 6.99 5 8 C4.01 7.34 3.02 6.68 2 6 C2 5.34 2 4.68 2 4 C1.01 4 0.02 4 -1 4 C-0.67 2.68 -0.34 1.36 0 0 Z " transform="translate(177,208)" style="fill: #5F6063;"></path><path d="M0 0 C0.33 0 0.66 0 1 0 C1.02725341 1.7290774 1.04650987 3.45828176 1.0625 5.1875 C1.07410156 6.15042969 1.08570313 7.11335938 1.09765625 8.10546875 C1.00486622 10.85576513 0.62111685 13.32479591 0 16 C-0.66 16 -1.32 16 -2 16 C-2.33 16.66 -2.66 17.32 -3 18 C-2.22095672 5.33029613 -2.22095672 5.33029613 0 0 Z " transform="translate(268,92)" style="fill: #5E5E5E;"></path><path d="M0 0 C3.96 0 7.92 0 12 0 C11.67 0.99 11.34 1.98 11 3 C7.04 3 3.08 3 -1 3 C-0.67 2.01 -0.34 1.02 0 0 Z " transform="translate(304,342)" style="fill: #1E1E1E;"></path><path d="M0 0 C2.5 2.3125 2.5 2.3125 5 5 C5 5.99 5 6.98 5 8 C4.34 7.67 3.68 7.34 3 7 C2.67 7.66 2.34 8.32 2 9 C1.67 9.33 1.34 9.66 1 10 C-0.32 8.68 -1.64 7.36 -3 6 C-2.34 6 -1.68 6 -1 6 C-1.0309375 4.7934375 -1.0309375 4.7934375 -1.0625 3.5625 C-1 1 -1 1 0 0 Z " transform="translate(284,224)" style="fill: #353535;"></path><path d="M0 0 C0.66 0.66 1.32 1.32 2 2 C1.07161713 3.31896465 0.13194268 4.62998689 -0.8125 5.9375 C-1.33457031 6.66839844 -1.85664063 7.39929688 -2.39453125 8.15234375 C-4 10 -4 10 -7 11 C-7 7 -7 7 -5.125 4.75 C-3 3 -3 3 -1 3 C-0.67 2.01 -0.34 1.02 0 0 Z " transform="translate(249,85)" style="fill: #303030;"></path><path d="M0 0 C1.16402344 -0.02126953 1.16402344 -0.02126953 2.3515625 -0.04296875 C4.375 0.1875 4.375 0.1875 6.375 2.1875 C2.95267028 3.32827657 0.28826783 3.28565117 -3.3125 3.25 C-5.08173828 3.23646484 -5.08173828 3.23646484 -6.88671875 3.22265625 C-7.79035156 3.21105469 -8.69398438 3.19945312 -9.625 3.1875 C-8.625 1.1875 -8.625 1.1875 -6.8515625 0.57421875 C-4.5318787 0.1713263 -2.35383859 0.01968092 0 0 Z " transform="translate(268.625,327.8125)" style="fill: #0E0E0E;"></path><path d="M0 0 C1.8871875 0.00773437 1.8871875 0.00773437 3.8125 0.015625 C5.070625 0.01046875 6.32875 0.0053125 7.625 0 C10.8125 0.265625 10.8125 0.265625 12.8125 2.265625 C8.71524731 3.30729941 5.19754776 3.20972025 1 2.828125 C-0.16144531 2.72628906 -1.32289063 2.62445313 -2.51953125 2.51953125 C-3.39996094 2.43574219 -4.28039062 2.35195313 -5.1875 2.265625 C-3.1875 0.265625 -3.1875 0.265625 0 0 Z " transform="translate(294.1875,326.734375)" style="fill: #151515;"></path><path d="M0 0 C0 0.66 0 1.32 0 2 C-1.91512272 2.50588147 -3.83216922 3.00448391 -5.75 3.5 C-7.35101563 3.91765625 -7.35101563 3.91765625 -8.984375 4.34375 C-12 5 -12 5 -16 5 C-16 4.34 -16 3.68 -16 3 C-5.62642369 -0.44419134 -5.62642369 -0.44419134 0 0 Z " transform="translate(165,84)" style="fill: #5B5B5B;"></path><path d="M0 0 C0.66 0.66 1.32 1.32 2 2 C2.66 1.67 3.32 1.34 4 1 C3.55037804 2.96035175 3.09001752 4.91824309 2.625 6.875 C2.36976563 7.96554688 2.11453125 9.05609375 1.8515625 10.1796875 C1 13 1 13 -1 15 C-1.02685412 12.68756208 -1.04632841 10.3750373 -1.0625 8.0625 C-1.07410156 6.77472656 -1.08570313 5.48695312 -1.09765625 4.16015625 C-1 1 -1 1 0 0 Z " transform="translate(270,83)" style="fill: #2F2F2F;"></path><path d="M0 0 C0.66 0.99 1.32 1.98 2 3 C1.34 3.66 0.68 4.32 0 5 C0 5.99 0 6.98 0 8 C-0.99 8.495 -0.99 8.495 -2 9 C-2 9.66 -2 10.32 -2 11 C-2.99 10.67 -3.98 10.34 -5 10 C-3.66511872 6.40608886 -2.03977277 3.24509304 0 0 Z M-6 11 C-5.34 11.33 -4.68 11.66 -4 12 C-4 12.99 -4 13.98 -4 15 C-4.99 15 -5.98 15 -7 15 C-6.67 13.68 -6.34 12.36 -6 11 Z " transform="translate(235,74)" style="fill: #424242;"></path><path d="M0 0 C5.94 0 11.88 0 18 0 C16.02 0.99 16.02 0.99 14 2 C13.67 2.66 13.34 3.32 13 4 C10.36 3.67 7.72 3.34 5 3 C5 2.34 5 1.68 5 1 C3.35 1 1.7 1 0 1 C0 0.67 0 0.34 0 0 Z " transform="translate(387,334)" style="fill: #404040;"></path><path d="M0 0 C1.98 0.495 1.98 0.495 4 1 C4 1.66 4 2.32 4 3 C4.99 3 5.98 3 7 3 C7 3.66 7 4.32 7 5 C8.32 5.33 9.64 5.66 11 6 C9.56344146 6.08131463 8.1255517 6.13933559 6.6875 6.1875 C5.48673828 6.23970703 5.48673828 6.23970703 4.26171875 6.29296875 C1.52148416 5.93801608 0.70828921 5.10633718 -1 3 C-0.67 2.01 -0.34 1.02 0 0 Z " transform="translate(164,220)" style="fill: #343534;"></path><path d="M0 0 C1.16402344 0.14501953 1.16402344 0.14501953 2.3515625 0.29296875 C4.375 0.8125 4.375 0.8125 6.375 2.8125 C2.96360997 3.90901823 0.16844419 3.75465473 -3.375 3.375 C-4.85226562 3.22224609 -4.85226562 3.22224609 -6.359375 3.06640625 C-7.10703125 2.98261719 -7.8546875 2.89882812 -8.625 2.8125 C-5.60594899 0.14498233 -3.99826063 -0.56831464 0 0 Z " transform="translate(370.625,187.1875)" style="fill: #535353;"></path><path d="M0 0 C0.268125 0.639375 0.53625 1.27875 0.8125 1.9375 C1.88667752 4.33131686 1.88667752 4.33131686 5 5 C4.01 6.485 4.01 6.485 3 8 C2.34 8 1.68 8 1 8 C1 10.64 1 13.28 1 16 C0.34 16.33 -0.32 16.66 -1 17 C-1.02699725 14.72923158 -1.04639453 12.45837179 -1.0625 10.1875 C-1.07990234 8.29064453 -1.07990234 8.29064453 -1.09765625 6.35546875 C-1 3 -1 3 0 0 Z " transform="translate(278,101)" style="fill: #252525;"></path><path d="M0 0 C0.66 0.66 1.32 1.32 2 2 C1.67342446 5.75561867 0.8830622 8.73602552 -1 12 C-1.66 12 -2.32 12 -3 12 C-3.88336837 9.5332355 -4.1312406 8.36140628 -3.22265625 5.859375 C-2.83980469 5.16328125 -2.45695312 4.4671875 -2.0625 3.75 C-1.68222656 3.04359375 -1.30195313 2.3371875 -0.91015625 1.609375 C-0.60980469 1.07828125 -0.30945313 0.5471875 0 0 Z " transform="translate(331,82)" style="fill: #393939;"></path><path d="M0 0 C-0.66 0 -1.32 0 -2 0 C-2 0.66 -2 1.32 -2 2 C-9.42857143 6.28571429 -9.42857143 6.28571429 -13 8 C-12.875 6.25 -12.875 6.25 -12 4 C-4.68874172 -1.56291391 -4.68874172 -1.56291391 0 0 Z " transform="translate(319,65)" style="fill: #797979;"></path><path d="M0 0 C3.63 0.33 7.26 0.66 11 1 C11 1.33 11 1.66 11 2 C7.92382812 2.29296875 7.92382812 2.29296875 4.84765625 2.5859375 C4.23792969 2.72257813 3.62820312 2.85921875 3 3 C2.67 3.66 2.34 4.32 2 5 C2.99 5.66 3.98 6.32 5 7 C1.625 7.125 1.625 7.125 -2 7 C-2.66 6.34 -3.32 5.68 -4 5 C-3.34 4.54625 -2.68 4.0925 -2 3.625 C-1.34 3.08875 -0.68 2.5525 0 2 C0 1.34 0 0.68 0 0 Z " transform="translate(244,234)" style="fill: #606060;"></path><path d="M0 0 C0.69738281 0.05671875 1.39476562 0.1134375 2.11328125 0.171875 C3.82639312 0.31267872 5.53834611 0.46745972 7.25 0.625 C6.015625 2.140625 6.015625 2.140625 4.25 3.625 C2.234375 3.734375 2.234375 3.734375 0 3.375 C-1.18142578 3.19904297 -1.18142578 3.19904297 -2.38671875 3.01953125 C-3.16660156 2.88933594 -3.94648438 2.75914062 -4.75 2.625 C-6.1038347 2.4351179 -7.45796693 2.24733445 -8.8125 2.0625 C-9.781875 1.918125 -10.75125 1.77375 -11.75 1.625 C-7.96332311 -0.93198285 -4.3377666 -0.40999684 0 0 Z " transform="translate(386.75,222.375)" style="fill: #818483;"></path><path d="M0 0 C2 1.375 2 1.375 4 3 C4 3.66 4 4.32 4 5 C7.465 4.505 7.465 4.505 11 4 C11.33 4.66 11.66 5.32 12 6 C9 7 9 7 6 6 C5.67 6.66 5.34 7.32 5 8 C4.34 7.34 3.68 6.68 3 6 C-0.08347826 5.83318891 -0.08347826 5.83318891 -3 6 C-2.34 5.67 -1.68 5.34 -1 5 C-0.34444881 2.47266765 -0.34444881 2.47266765 0 0 Z " transform="translate(188,213)" style="fill: #58595A;"></path><path d="M0 0 C4.29 0.33 8.58 0.66 13 1 C8.42164847 3.28917577 6.08462738 4 1 4 C0.67 2.68 0.34 1.36 0 0 Z " transform="translate(179,321)" style="fill: #3C3C3C;"></path><path d="M0 0 C0.99 0.33 1.98 0.66 3 1 C3.33 3.64 3.66 6.28 4 9 C2.68 9.33 1.36 9.66 0 10 C-0.144375 9.236875 -0.28875 8.47375 -0.4375 7.6875 C-0.9632594 4.91827092 -0.9632594 4.91827092 -2 2 C-1.34 1.34 -0.68 0.68 0 0 Z " transform="translate(313,81)" style="fill: #333333;"></path><path d="M0 0 C0.33 0 0.66 0 1 0 C0.7589852 6.14587738 0.7589852 6.14587738 -1.40234375 8.578125 C-2.88046971 9.78844931 -4.43647953 10.90220903 -6 12 C-6.66 11.67 -7.32 11.34 -8 11 C-6.69144447 9.16384919 -5.37805538 7.33114211 -4.0625 5.5 C-3.33160156 4.4790625 -2.60070312 3.458125 -1.84765625 2.40625 C-1.23792969 1.6121875 -0.62820313 0.818125 0 0 Z " transform="translate(304,73)" style="fill: #595959;"></path><path d="M0 0 C1.07765625 0.00902344 2.1553125 0.01804688 3.265625 0.02734375 C4.08546875 0.03894531 4.9053125 0.05054688 5.75 0.0625 C6.08 0.7225 6.41 1.3825 6.75 2.0625 C3.45 2.3925 0.15 2.7225 -3.25 3.0625 C-3.25 2.4025 -3.25 1.7425 -3.25 1.0625 C-5.23 2.0525 -5.23 2.0525 -7.25 3.0625 C-8.24 2.4025 -9.23 1.7425 -10.25 1.0625 C-6.78777385 -0.00473961 -3.60960734 -0.03923486 0 0 Z " transform="translate(38.25,196.9375)" style="fill: #404040;"></path><path d="M0 0 C-0.99 0.495 -0.99 0.495 -2 1 C-2 1.66 -2 2.32 -2 3 C-4.3125 4.125 -4.3125 4.125 -7 5 C-7.99 4.34 -8.98 3.68 -10 3 C-10 2.34 -10 1.68 -10 1 C-9.401875 0.855625 -8.80375 0.71125 -8.1875 0.5625 C-2.61290323 -0.87096774 -2.61290323 -0.87096774 0 0 Z " transform="translate(415,332)" style="fill: #292929;"></path><path d="M0 0 C0.12375 0.639375 0.2475 1.27875 0.375 1.9375 C0.58125 2.618125 0.7875 3.29875 1 4 C1.66 4.33 2.32 4.66 3 5 C2.01 5.33 1.02 5.66 0 6 C0 5.34 0 4.68 0 4 C-1.32 4 -2.64 4 -4 4 C-4 4.66 -4 5.32 -4 6 C-5.65 5.67 -7.3 5.34 -9 5 C-6.08596738 3.05731159 -3.14191424 1.53604696 0 0 Z " transform="translate(269,229)" style="fill: #575757;"></path><path d="M0 0 C3.3 0 6.6 0 10 0 C9.67 0.99 9.34 1.98 9 3 C4.94568308 4.15837626 2.78187881 3.83691257 -1 2 C-0.67 1.34 -0.34 0.68 0 0 Z " transform="translate(478,228)" style="fill: #2D2D2D;"></path><path d="M0 0 C3 1 6 2 9 3 C9 4.32 9 5.64 9 7 C6.36 7 3.72 7 1 7 C1.66 5.68 2.32 4.36 3 3 C2.01 3 1.02 3 0 3 C0 2.01 0 1.02 0 0 Z " transform="translate(168,220)" style="fill: #646565;"></path><path d="M0 0 C-0.1875 1.8125 -0.1875 1.8125 -1 4 C-3.5625 5.75 -3.5625 5.75 -6 7 C-6.33 6.01 -6.66 5.02 -7 4 C-7.66 3.34 -8.32 2.68 -9 2 C-2.25 0 -2.25 0 0 0 Z " transform="translate(400,212)" style="fill: #3C3F3D;"></path><path d="M0 0 C2.375 0.1875 2.375 0.1875 5 1 C6.4375 3.25 6.4375 3.25 7 6 C6.125 8.8125 6.125 8.8125 5 11 C4.67 11 4.34 11 4 11 C3.71125 9.9275 3.4225 8.855 3.125 7.75 C2.27179891 4.90599636 1.4363497 2.56491017 0 0 Z " transform="translate(215,128)" style="fill: #4B4B4B;"></path><path d="M0 0 C1.65 1.65 3.3 3.3 5 5 C4.01 5.33 3.02 5.66 2 6 C2 6.66 2 7.32 2 8 C1.34 8 0.68 8 0 8 C-1.125 2.25 -1.125 2.25 0 0 Z M0 8 C0 9.65 0 11.3 0 13 C-0.99 11.68 -1.98 10.36 -3 9 C-2 8 -2 8 0 8 Z " transform="translate(215,114)" style="fill: #444444;"></path><path d="M0 0 C-0.639375 0.103125 -1.27875 0.20625 -1.9375 0.3125 C-2.618125 0.539375 -3.29875 0.76625 -4 1 C-4.33 1.99 -4.66 2.98 -5 4 C-9.455 4.495 -9.455 4.495 -14 5 C-10.63156097 2.05261585 -4.40469071 -2.20234535 0 0 Z " transform="translate(62,273)" style="fill: #494949;"></path><path d="M0 0 C0.33 0.99 0.66 1.98 1 3 C-4.625 7 -4.625 7 -8 7 C-7.34 5.68 -6.68 4.36 -6 3 C-5.01 3 -4.02 3 -3 3 C-3 2.34 -3 1.68 -3 1 C-2.01 0.67 -1.02 0.34 0 0 Z " transform="translate(452,205)" style="fill: #313131;"></path><path d="M0 0 C0 1.65 0 3.3 0 5 C-1.65 5.66 -3.3 6.32 -5 7 C-5.33 5.35 -5.66 3.7 -6 2 C-3 0 -3 0 0 0 Z " transform="translate(395,203)" style="fill: #383938;"></path><path d="M0 0 C0.57234375 0.23589844 1.1446875 0.47179687 1.734375 0.71484375 C1.074375 0.71484375 0.414375 0.71484375 -0.265625 0.71484375 C-0.4925 1.33359375 -0.719375 1.95234375 -0.953125 2.58984375 C-2.67117145 5.37144276 -4.17557599 5.81043916 -7.265625 6.71484375 C-8.255625 6.71484375 -9.245625 6.71484375 -10.265625 6.71484375 C-9.03009224 5.51229851 -7.77660161 4.32818143 -6.515625 3.15234375 C-5.81953125 2.49105469 -5.1234375 1.82976562 -4.40625 1.1484375 C-2.265625 -0.28515625 -2.265625 -0.28515625 0 0 Z " transform="translate(262.265625,76.28515625)" style="fill: #282828;"></path><path d="M0 0 C-0.99 0.66 -1.98 1.32 -3 2 C-3.99 1.67 -4.98 1.34 -6 1 C-6.66 2.65 -7.32 4.3 -8 6 C-8.66 5.67 -9.32 5.34 -10 5 C-9.625 2.5625 -9.625 2.5625 -9 0 C-5.93109813 -1.53445094 -3.29905734 -0.54984289 0 0 Z " transform="translate(346,62)" style="fill: #555555;"></path><path d="M0 0 C1.09570312 0.00902344 2.19140625 0.01804688 3.3203125 0.02734375 C4.16335937 0.03894531 5.00640625 0.05054688 5.875 0.0625 C5.545 0.7225 5.215 1.3825 4.875 2.0625 C0.48616795 2.89058152 -3.66819101 3.0625 -8.125 3.0625 C-8.125 2.4025 -8.125 1.7425 -8.125 1.0625 C-5.36047967 -0.31976016 -3.0788637 -0.03275387 0 0 Z " transform="translate(51.125,241.9375)" style="fill: #0D0D0D;"></path><path d="M0 0 C0.33 0.99 0.66 1.98 1 3 C-3.12168689 4.62950412 -5.70700357 5.26264601 -10 4 C-7.80202597 1.80202597 -6.82453855 1.54102483 -3.875 0.875 C-2.59625 0.58625 -1.3175 0.2975 0 0 Z " transform="translate(501,184)" style="fill: #484848;"></path><path d="M0 0 C1.8871875 0.0309375 1.8871875 0.0309375 3.8125 0.0625 C0.44826723 3.02302484 -2.87909287 3.98539822 -7.1875 5.0625 C-7.1875 3.7425 -7.1875 2.4225 -7.1875 1.0625 C-4.43671116 0.14557039 -2.82801087 -0.04636083 0 0 Z " transform="translate(199.1875,348.9375)" style="fill: #4E4E4E;"></path><path d="M0 0 C0.66 0.33 1.32 0.66 2 1 C0.63016497 4.16115776 0.0109362 4.9927092 -3 7 C-4.32 6.67 -5.64 6.34 -7 6 C-4.69 4.02 -2.38 2.04 0 0 Z " transform="translate(422,324)" style="fill: #363636;"></path><path d="M0 0 C1.74965358 -0.05429959 3.49979787 -0.09292823 5.25 -0.125 C6.22453125 -0.14820313 7.1990625 -0.17140625 8.203125 -0.1953125 C11.0196498 0.00137219 12.60949036 0.55431084 15 2 C9.43842552 2.91457003 5.324335 3.32086397 0 1 C0 0.67 0 0.34 0 0 Z " transform="translate(312,325)" style="fill: #3A3A3A;"></path><path d="M0 0 C0.33 0.66 0.66 1.32 1 2 C4.63 2 8.26 2 12 2 C8.25631258 3.87184371 7.1599209 4.23999767 3.25 4.125 C2.45078125 4.10695313 1.6515625 4.08890625 0.828125 4.0703125 C0.22484375 4.04710937 -0.3784375 4.02390625 -1 4 C-1.33 3.01 -1.66 2.02 -2 1 C-1.34 0.67 -0.68 0.34 0 0 Z " transform="translate(116,321)" style="fill: #242424;"></path><path d="M0 0 C0.66 0 1.32 0 2 0 C2.309375 1.093125 2.61875 2.18625 2.9375 3.3125 C3.58337897 5.55407994 4.2623117 7.7869351 5 10 C4.01 10.99 3.02 11.98 2 13 C0.54815522 8.46298506 -0.23509196 4.81938524 0 0 Z " transform="translate(233,291)" style="fill: #2A2A2A;"></path><path d="M0 0 C0 2.93593133 -0.22499427 5.76556416 -0.5 8.6875 C-0.5928125 9.68136719 -0.685625 10.67523438 -0.78125 11.69921875 C-0.8534375 12.45847656 -0.925625 13.21773438 -1 14 C-3.47342266 10.28986601 -3.38503486 8.38939738 -3 4 C-1.5 1.5625 -1.5 1.5625 0 0 Z " transform="translate(156,291)" style="fill: #202020;"></path><path d="M0 0 C-1.55711253 3.11422506 -3.84690151 3.7266333 -7 5 C-9.875 4.6875 -9.875 4.6875 -12 4 C-7.66457495 0.67617413 -5.52858726 -0.12018668 0 0 Z " transform="translate(53,278)" style="fill: #242424;"></path><path d="M0 0 C1.32 0.66 2.64 1.32 4 2 C3.67 2.99 3.34 3.98 3 5 C-0.3 5 -3.6 5 -7 5 C-5 3.66666667 -3 2.33333333 -1 1 C-0.67 0.67 -0.34 0.34 0 0 Z " transform="translate(290,129)" style="fill: #1B1B1B;"></path><path d="M0 0 C2.3125 0.1875 2.3125 0.1875 5 1 C6.8125 3.5625 6.8125 3.5625 8 6 C7.34 6.66 6.68 7.32 6 8 C4.02 5.36 2.04 2.72 0 0 Z " transform="translate(194,99)" style="fill: #434343;"></path><path d="M0 0 C0.33 0.99 0.66 1.98 1 3 C-0.25 5.1875 -0.25 5.1875 -2 7 C-2.99 7 -3.98 7 -5 7 C-4.75 4.625 -4.75 4.625 -4 2 C-1.9375 0.6875 -1.9375 0.6875 0 0 Z " transform="translate(387,207)" style="fill: #2D2F2F;"></path><path d="M0 0 C-1.134375 0.391875 -2.26875 0.78375 -3.4375 1.1875 C-7.20339051 2.58610882 -7.20339051 2.58610882 -7.9375 5.6875 C-7.958125 6.450625 -7.97875 7.21375 -8 8 C-8.66 8 -9.32 8 -10 8 C-10.75 6.25 -10.75 6.25 -11 4 C-9.00221832 1.31067851 -7.58449655 0.1809156 -4.375 -0.8125 C-2 -1 -2 -1 0 0 Z " transform="translate(24,200)" style="fill: #4F4F4F;"></path><path d="M0 0 C0 3.7794561 -1.04679411 5.79116175 -3 9 C-5.1875 9.875 -5.1875 9.875 -7 10 C-5.6062718 5.56541027 -3.39417765 3.12621626 0 0 Z " transform="translate(286,96)" style="fill: #595959;"></path><path d="M0 0 C0.99 0.33 1.98 0.66 3 1 C2.34 3.97 1.68 6.94 1 10 C0.34 10 -0.32 10 -1 10 C-1.125 3.375 -1.125 3.375 0 0 Z " transform="translate(227,89)" style="fill: #363636;"></path><path d="M0 0 C0.37125 0.515625 0.7425 1.03125 1.125 1.5625 C0.135 1.5625 -0.855 1.5625 -1.875 1.5625 C-1.875 2.2225 -1.875 2.8825 -1.875 3.5625 C-3.75 3.25 -3.75 3.25 -5.875 2.5625 C-6.535 1.5725 -7.195 0.5825 -7.875 -0.4375 C-2.33653846 -1.79134615 -2.33653846 -1.79134615 0 0 Z " transform="translate(114.875,324.4375)" style="fill: #0B0B0B;"></path><path d="M0 0 C1.32 0.33 2.64 0.66 4 1 C2.68 1 1.36 1 0 1 C0 0.67 0 0.34 0 0 Z M-2 2 C-1.01 2.33 -0.02 2.66 1 3 C2.66362417 3.34820041 4.32995171 3.68404492 6 4 C2.77208445 6.1519437 1.71599191 6.20086443 -2 6 C-2.33 5.34 -2.66 4.68 -3 4 C-2.67 3.34 -2.34 2.68 -2 2 Z " transform="translate(382,216)" style="fill: #757676;"></path><path d="M0 0 C0.66 0.33 1.32 0.66 2 1 C2 3.64 2 6.28 2 9 C1.34 9 0.68 9 0 9 C-0.33 9.66 -0.66 10.32 -1 11 C-2.25 3.375 -2.25 3.375 0 0 Z " transform="translate(185,197)" style="fill: #5D5D5D;"></path><path d="M0 0 C0.9075 0.226875 1.815 0.45375 2.75 0.6875 C0.28721199 3.15028801 -1.95676982 3.68521255 -5.25 4.6875 C-5.91 4.0275 -6.57 3.3675 -7.25 2.6875 C-4.61280971 0.1517401 -3.74095095 -0.35970682 0 0 Z " transform="translate(193.25,336.3125)" style="fill: #434343;"></path><path d="M0 0 C1.32 0.66 2.64 1.32 4 2 C4 2.99 4 3.98 4 5 C2.35 5.66 0.7 6.32 -1 7 C-0.67 4.69 -0.34 2.38 0 0 Z " transform="translate(246,318)" style="fill: #383838;"></path><path d="M0 0 C1.43836751 0.11458693 2.87570966 0.24209116 4.3125 0.375 C5.51326172 0.47941406 5.51326172 0.47941406 6.73828125 0.5859375 C9 1 9 1 12 3 C8.71303767 3.79953138 7.28976808 4.09658936 4 3 C3.01 3.495 3.01 3.495 2 4 C1.34 2.68 0.68 1.36 0 0 Z " transform="translate(493,263)" style="fill: #575757;"></path><path d="M0 0 C1 4 1 4 -0.1875 7.1875 C-2 10 -2 10 -6 11 C-4.02 7.37 -2.04 3.74 0 0 Z " transform="translate(273,219)" style="fill: #797979;"></path><path d="M0 0 C0.66 0.33 1.32 0.66 2 1 C1.67 2.65 1.34 4.3 1 6 C-0.65 6.33 -2.3 6.66 -4 7 C-4 6.34 -4 5.68 -4 5 C-3.34 5 -2.68 5 -2 5 C-1.34 3.35 -0.68 1.7 0 0 Z " transform="translate(118,220)" style="fill: #474747;"></path><path d="M0 0 C3.3 0.33 6.6 0.66 10 1 C9.67 1.66 9.34 2.32 9 3 C6.35139573 3.59355614 3.70802678 3.74209269 1 4 C0.67 2.68 0.34 1.36 0 0 Z " transform="translate(255,131)" style="fill: #4F4F4F;"></path><path d="M0 0 C2 1.0625 2 1.0625 4 3 C4.25 6.6875 4.25 6.6875 4 10 C2 9 2 9 0.875 6.6875 C0 4 0 4 0 0 Z " transform="translate(299,123)" style="fill: #262626;"></path><path d="M0 0 C0.66 0.33 1.32 0.66 2 1 C2 1.99 2 2.98 2 4 C2.99 4.33 3.98 4.66 5 5 C4.34 6.32 3.68 7.64 3 9 C0.9375 6.1875 0.9375 6.1875 -1 3 C-0.67 2.01 -0.34 1.02 0 0 Z " transform="translate(233,122)" style="fill: #313131;"></path><path d="M0 0 C1.32 0.33 2.64 0.66 4 1 C4 1.66 4 2.32 4 3 C3.01 3.33 2.02 3.66 1 4 C0.01 5.485 0.01 5.485 -1 7 C-1.66 6.34 -2.32 5.68 -3 5 C-2.01 3.35 -1.02 1.7 0 0 Z " transform="translate(239,68)" style="fill: #282828;"></path><path d="M0 0 C3.63 0 7.26 0 11 0 C10.01 0.495 10.01 0.495 9 1 C9 1.66 9 2.32 9 3 C4.45804635 3.37849614 3.9855604 2.9891703 0 0 Z " transform="translate(192,323)" style="fill: #373737;"></path><path d="M0 0 C0.99 0 1.98 0 3 0 C2.67 1.98 2.34 3.96 2 6 C1.34 6 0.68 6 0 6 C-0.33 6.66 -0.66 7.32 -1 8 C-2.2077558 4.37673261 -1.54311128 3.35853631 0 0 Z " transform="translate(350,299)" style="fill: #292929;"></path><path d="M0 0 C0 0.99 0 1.98 0 3 C-2.64 3.33 -5.28 3.66 -8 4 C-8 3.01 -8 2.02 -8 1 C-5.10765685 0.17361624 -3.11257569 0 0 0 Z " transform="translate(70,270)" style="fill: #454545;"></path><path d="M0 0 C1.32 0 2.64 0 4 0 C3.34 1.32 2.68 2.64 2 4 C-0.64 3.67 -3.28 3.34 -6 3 C-6 2.34 -6 1.68 -6 1 C-3.03 1.495 -3.03 1.495 0 2 C0 1.34 0 0.68 0 0 Z " transform="translate(265,233)" style="fill: #2C2C2C;"></path><path d="M0 0 C3.63 0 7.26 0 11 0 C10.01 1.485 10.01 1.485 9 3 C5.375 3.1875 5.375 3.1875 2 3 C2 2.34 2 1.68 2 1 C1.34 0.67 0.68 0.34 0 0 Z " transform="translate(190,215)" style="fill: #2C2C2C;"></path><path d="M0 0 C0.99 0 1.98 0 3 0 C3.99 2.31 4.98 4.62 6 7 C4.68 7 3.36 7 2 7 C1.34 4.69 0.68 2.38 0 0 Z " transform="translate(185,206)" style="fill: #1C1F20;"></path><path d="M0 0 C0.66 0.33 1.32 0.66 2 1 C0.76302083 2.46484375 -0.47395833 3.9296875 -1.7109375 5.39453125 C-2.89201099 6.8655046 -3.95358529 8.43037794 -5 10 C-4.50769231 3.47692308 -4.50769231 3.47692308 -1.9375 1.0625 C-0.9784375 0.5365625 -0.9784375 0.5365625 0 0 Z " transform="translate(191,192)" style="fill: #171717;"></path><path d="M0 0 C0.66 0.33 1.32 0.66 2 1 C-2.43076923 6.78461538 -2.43076923 6.78461538 -5.3125 7.875 C-5.869375 7.91625 -6.42625 7.9575 -7 8 C-3.375 2.25 -3.375 2.25 0 0 Z " transform="translate(111,114)" style="fill: #626262;"></path><path d="M0 0 C0.33 1.32 0.66 2.64 1 4 C-1.31 5.65 -3.62 7.3 -6 9 C-6.66 8.67 -7.32 8.34 -8 8 C-7.50628906 7.59007813 -7.01257813 7.18015625 -6.50390625 6.7578125 C-5.86324219 6.21898438 -5.22257812 5.68015625 -4.5625 5.125 C-3.92441406 4.59132813 -3.28632813 4.05765625 -2.62890625 3.5078125 C-0.89194996 2.0777243 -0.89194996 2.0777243 0 0 Z " transform="translate(362,99)" style="fill: #909090;"></path><path d="M0 0 C0.99 0 1.98 0 3 0 C3.33 2.64 3.66 5.28 4 8 C3.34 8 2.68 8 2 8 C2 7.34 2 6.68 2 6 C1.34 6 0.68 6 0 6 C0 4.02 0 2.04 0 0 Z " transform="translate(314,95)" style="fill: #565656;"></path><path d="M0 0 C-1 2 -1 2 -3.9375 3.125 C-7 4 -7 4 -9 4 C-9 3.34 -9 2.68 -9 2 C-3.375 -1.125 -3.375 -1.125 0 0 Z " transform="translate(30,246)" style="fill: #3C3C3C;"></path><path d="M0 0 C4.455 0.99 4.455 0.99 9 2 C8.67 2.99 8.34 3.98 8 5 C5.36 4.34 2.72 3.68 0 3 C0 2.01 0 1.02 0 0 Z " transform="translate(90,239)" style="fill: #373737;"></path><path d="M0 0 C1.65 0 3.3 0 5 0 C5 0.99 5 1.98 5 3 C2 5 2 5 -0.1875 4.625 C-0.785625 4.41875 -1.38375 4.2125 -2 4 C-1.01 4 -0.02 4 1 4 C0.67 2.68 0.34 1.36 0 0 Z " transform="translate(321,236)" style="fill: #3E3E3E;"></path><path d="M0 0 C0.66 0.66 1.32 1.32 2 2 C1 3 1 3 -1.06640625 3.09765625 C-1.89011719 3.08605469 -2.71382812 3.07445312 -3.5625 3.0625 C-4.38878906 3.05347656 -5.21507812 3.04445312 -6.06640625 3.03515625 C-6.70449219 3.02355469 -7.34257812 3.01195312 -8 3 C-8.33 2.34 -8.66 1.68 -9 1 C-7.54364629 0.77825067 -6.08477044 0.57301302 -4.625 0.375 C-3.40683594 0.20097656 -3.40683594 0.20097656 -2.1640625 0.0234375 C-1.44992188 0.01570312 -0.73578125 0.00796875 0 0 Z " transform="translate(255,235)" style="fill: #2D2D2D;"></path><path d="M0 0 C1.32 0.33 2.64 0.66 4 1 C4 1.66 4 2.32 4 3 C4.66 3 5.32 3 6 3 C6.33 4.32 6.66 5.64 7 7 C5.1875 6.875 5.1875 6.875 3 6 C1.25 2.9375 1.25 2.9375 0 0 Z " transform="translate(201,107)" style="fill: #484848;"></path><path d="M0 0 C2.64 0 5.28 0 8 0 C7.67 0.66 7.34 1.32 7 2 C5.68 2 4.36 2 3 2 C3 2.66 3 3.32 3 4 C2.01 4 1.02 4 0 4 C0 2.68 0 1.36 0 0 Z " transform="translate(243,346)" style="fill: #090909;"></path><path d="M0 0 C3.3 0 6.6 0 10 0 C10 0.33 10 0.66 10 1 C8.02 1 6.04 1 4 1 C4 1.66 4 2.32 4 3 C2.68 3.33 1.36 3.66 0 4 C0 2.68 0 1.36 0 0 Z " transform="translate(103,323)" style="fill: #545454;"></path><path d="M0 0 C0 0.33 0 0.66 0 1 C-5.95703125 2.7578125 -5.95703125 2.7578125 -8 3 C-8.99 2.34 -9.98 1.68 -11 1 C-6.87831311 -0.62950412 -4.29299643 -1.26264601 0 0 Z " transform="translate(191,271)" style="fill: #5F5F5F;"></path><path d="M0 0 C-0.33 0.66 -0.66 1.32 -1 2 C-4.4375 2.75 -4.4375 2.75 -8 3 C-8.66 2.34 -9.32 1.68 -10 1 C-6.52674819 -0.1577506 -3.63932552 -0.06866652 0 0 Z " transform="translate(47,241)" style="fill: #3E3E3E;"></path><path d="M0 0 C0 0.66 0 1.32 0 2 C-6.625 3 -6.625 3 -10 3 C-6.84916414 -0.15083586 -4.41812253 0 0 0 Z " transform="translate(470,230)" style="fill: #5C5C5C;"></path><path d="M0 0 C3.96 1.98 3.96 1.98 8 4 C4.86650268 5.04449911 4.01031744 4.93423645 1 4 C0.67 2.68 0.34 1.36 0 0 Z " transform="translate(102,209)" style="fill: #595959;"></path><path d="M0 0 C1.9375 0.3125 1.9375 0.3125 4 1 C4.33 1.99 4.66 2.98 5 4 C5.66 4.33 6.32 4.66 7 5 C6.34 5.66 5.68 6.32 5 7 C3.29115995 5.37660195 1.62553283 3.70680947 0 2 C0 1.34 0 0.68 0 0 Z " transform="translate(278,118)" style="fill: #464646;"></path><path d="M0 0 C0.33 0.66 0.66 1.32 1 2 C-0.65 4.31 -2.3 6.62 -4 9 C-5.37245106 6.25509788 -4.93580311 4.87939419 -4 2 C-1.9375 0.6875 -1.9375 0.6875 0 0 Z " transform="translate(309,71)" style="fill: #1D1D1D;"></path><path d="M0 0 C2.97 0 5.94 0 9 0 C7.515 1.485 7.515 1.485 6 3 C3.375 2.8125 3.375 2.8125 1 2 C0.67 1.34 0.34 0.68 0 0 Z " transform="translate(248,318)" style="fill: #0C0C0C;"></path><path d="M0 0 C1.32 0.33 2.64 0.66 4 1 C3.67 1.99 3.34 2.98 3 4 C2.01 4 1.02 4 0 4 C-0.33 4.66 -0.66 5.32 -1 6 C-1.33 5.01 -1.66 4.02 -2 3 C-1.34 3 -0.68 3 0 3 C0 2.01 0 1.02 0 0 Z " transform="translate(194,219)" style="fill: #747575;"></path><path d="M0 0 C2.00720923 0.28674418 4.0085944 0.61866701 6 1 C7 4 7 4 6.0625 6.1875 C5.5365625 7.0846875 5.5365625 7.0846875 5 8 C4.7525 7.030625 4.505 6.06125 4.25 5.0625 C3.63125 3.5465625 3.63125 3.5465625 3 2 C0.96756452 1.03122943 0.96756452 1.03122943 -1 1 C-0.67 0.67 -0.34 0.34 0 0 Z " transform="translate(480,199)" style="fill: #838383;"></path><path d="M0 0 C0 0.33 0 0.66 0 1 C-1.95603851 1.52938657 -3.91492289 2.04826801 -5.875 2.5625 C-6.96554688 2.85253906 -8.05609375 3.14257812 -9.1796875 3.44140625 C-12 4 -12 4 -14 3 C-9.03006806 0.56574762 -5.65394631 -0.34615998 0 0 Z " transform="translate(31,199)" style="fill: #171717;"></path><path d="M0 0 C0.33 0.66 0.66 1.32 1 2 C0.06421005 4.35981813 -0.93347808 6.69631264 -2 9 C-2.66 8.67 -3.32 8.34 -4 8 C-3.40072174 4.64404172 -2.15377564 2.62198774 0 0 Z " transform="translate(360,190)" style="fill: #656565;"></path><path d="M0 0 C0 0.66 0 1.32 0 2 C-3.3 2.66 -6.6 3.32 -10 4 C-4.66666667 0 -4.66666667 0 0 0 Z " transform="translate(479,193)" style="fill: #6C6C6C;"></path><path d="M0 0 C0.33 0.99 0.66 1.98 1 3 C-0.3125 5.1875 -0.3125 5.1875 -2 7 C-2.66 7 -3.32 7 -4 7 C-4.33 7.66 -4.66 8.32 -5 9 C-3.36986301 2.24657534 -3.36986301 2.24657534 0 0 Z " transform="translate(189,190)" style="fill: #878787;"></path><path d="M0 0 C1.125 1.75 1.125 1.75 2 4 C1.125 6.25 1.125 6.25 0 8 C-0.66 8 -1.32 8 -2 8 C-2.33 8.99 -2.66 9.98 -3 11 C-2.32829194 7.1936543 -1.27253436 3.64793184 0 0 Z " transform="translate(72,182)" style="fill: #636363;"></path><path d="M0 0 C0.33 0.66 0.66 1.32 1 2 C0.06421005 4.35981813 -0.93347808 6.69631264 -2 9 C-2.66 9 -3.32 9 -4 9 C-4.25 6.75 -4.25 6.75 -4 4 C-2 1.6875 -2 1.6875 0 0 Z " transform="translate(77,173)" style="fill: #535353;"></path><path d="M0 0 C0 3.9519815 -1.37176172 5.14648416 -4 8 C-4.99 8.33 -5.98 8.66 -7 9 C-5.44499019 5.18315774 -2.96404505 2.80804268 0 0 Z " transform="translate(116,111)" style="fill: #171717;"></path><path d="M0 0 C1 2 1 2 0.0625 5.125 C-0.288125 6.07375 -0.63875 7.0225 -1 8 C-1.99 8 -2.98 8 -4 8 C-2.25 2.25 -2.25 2.25 0 0 Z " transform="translate(127,102)" style="fill: #1B1B1B;"></path><path d="M0 0 C3.63 0 7.26 0 11 0 C7.81237635 2.12508244 5.73487777 2.5020163 2 3 C2 2.34 2 1.68 2 1 C1.34 0.67 0.68 0.34 0 0 Z " transform="translate(301,235)" style="fill: #5C5C5C;"></path><path d="M0 0 C3.65316671 1.24976756 4.78065836 1.67098753 7 5 C6.01 5.495 6.01 5.495 5 6 C3.2925002 4.71937515 1.62626404 3.38232443 0 2 C0 1.34 0 0.68 0 0 Z " transform="translate(110,214)" style="fill: #363636;"></path><path d="M0 0 C0 0.66 0 1.32 0 2 C-0.78375 2.268125 -1.5675 2.53625 -2.375 2.8125 C-5.28114923 3.84814432 -5.28114923 3.84814432 -7 7 C-7 6.34 -7 5.68 -7 5 C-7.66 4.67 -8.32 4.34 -9 4 C-3.375 0 -3.375 0 0 0 Z " transform="translate(444,211)" style="fill: #626262;"></path><path d="M0 0 C3.77126791 1.01180358 4.78414572 1.67621858 7 5 C3.58978257 4.21302675 0.31114834 3.12880057 -3 2 C-2.01 1.34 -1.02 0.68 0 0 Z " transform="translate(412,81)" style="fill: #252525;"></path><path d="M0 0 C0.99 0 1.98 0 3 0 C3.66 1.98 4.32 3.96 5 6 C3.68 5.67 2.36 5.34 1 5 C0.67 3.35 0.34 1.7 0 0 Z " transform="translate(319,69)" style="fill: #2A2A2A;"></path><path d="M0 0 C-1.1875 1.5625 -1.1875 1.5625 -3 3 C-5.6875 2.6875 -5.6875 2.6875 -8 2 C-5.14066998 -0.85933002 -3.8625627 -1.2875209 0 0 Z " transform="translate(181,274)" style="fill: #505050;"></path><path d="M0 0 C0.33 0.99 0.66 1.98 1 3 C-1.70879335 4.35439668 -4.00933268 4.06501451 -7 4 C-6.01 3.67 -5.02 3.34 -4 3 C-4 2.34 -4 1.68 -4 1 C-2 0 -2 0 0 0 Z " transform="translate(399,223)" style="fill: #171B1A;"></path><path d="M0 0 C0.66 0.33 1.32 0.66 2 1 C2.1875 3.375 2.1875 3.375 2 6 C0.515 6.99 0.515 6.99 -1 8 C-1.04241723 5.66705225 -1.04092937 3.33297433 -1 1 C-0.67 0.67 -0.34 0.34 0 0 Z " transform="translate(62,223)" style="fill: #363636;"></path><path d="M0 0 C1.875 0.3125 1.875 0.3125 4 1 C4.66 1.99 5.32 2.98 6 4 C4.35 4 2.7 4 1 4 C0.67 2.68 0.34 1.36 0 0 Z " transform="translate(188,218)" style="fill: #3D3E3F;"></path><path d="M0 0 C0.66 0.66 1.32 1.32 2 2 C1.625 5.125 1.625 5.125 1 8 C-1 6 -1 6 -1.1875 3.4375 C-1 1 -1 1 0 0 Z " transform="translate(490,213)" style="fill: #434343;"></path><path d="M0 0 C0.66 0.33 1.32 0.66 2 1 C2 2.65 2 4.3 2 6 C-0.97 5.505 -0.97 5.505 -4 5 C-2.68 4.67 -1.36 4.34 0 4 C0 2.68 0 1.36 0 0 Z " transform="translate(322,131)" style="fill: #3A3A3A;"></path><path d="M0 0 C0.66 0.33 1.32 0.66 2 1 C0.625 2.5 0.625 2.5 -1 4 C-1.66 4 -2.32 4 -3 4 C-3 4.66 -3 5.32 -3 6 C-4.32 5.67 -5.64 5.34 -7 5 C-4.69 3.35 -2.38 1.7 0 0 Z " transform="translate(358,105)" style="fill: #484848;"></path><path d="M0 0 C1.98 1.65 3.96 3.3 6 5 C5.01 5.66 4.02 6.32 3 7 C0 2.25 0 2.25 0 0 Z " transform="translate(198,93)" style="fill: #4A4A4A;"></path><path d="M0 0 C-2.25 2.0625 -2.25 2.0625 -5 4 C-7.3125 3.75 -7.3125 3.75 -9 3 C-5.92807025 0.26939578 -4.09590633 -0.34132553 0 0 Z " transform="translate(138,95)" style="fill: #727272;"></path><path d="M0 0 C2 2 2 2 2.125 5.125 C2.08375 6.07375 2.0425 7.0225 2 8 C0.68 6.68 -0.64 5.36 -2 4 C-1.34 2.68 -0.68 1.36 0 0 Z " transform="translate(316,91)" style="fill: #101010;"></path><path d="M0 0 C0.66 0.66 1.32 1.32 2 2 C0 5 0 5 -2.625 5.6875 C-3.800625 5.8421875 -3.800625 5.8421875 -5 6 C-4.34 5.01 -3.68 4.02 -3 3 C-2.34 3 -1.68 3 -1 3 C-0.67 2.01 -0.34 1.02 0 0 Z " transform="translate(249,85)" style="fill: #434343;"></path></svg>